<?xml version="1.0" encoding="utf-8"?>
<!-- Generator: Adobe Illustrator 28.2.0, SVG Export Plug-In . SVG Version: 6.00 Build 0)  -->
<svg version="1.1" id="Layer_2_00000058564110565592049470000016579952004471865506_"
	 xmlns="http://www.w3.org/2000/svg" xmlns:xlink="http://www.w3.org/1999/xlink" x="0px" y="0px" viewBox="0 0 175.3 103.5"
	 style="enable-background:new 0 0 175.3 103.5;" xml:space="preserve">
<path d="M135.3,81.3c-8.3,1.1-16.6,1.9-24.7,3.5c-1.7,0.3-3.4,3.2-4.1,5.2c-4.5,12.9-18.3,17.6-29.4,9.5c-2.9-2.1-4.6-5.8-7.7-9.8
	c-4,0-9.3,0.3-14.5-0.1c-5.8-0.5-10.3-0.3-14.6,5.4c-5.5,7.4-19.7,5.2-24.8-3c-2.2-3.6-4.3-6.1-8.8-7C1,83.8-1.1,78.4,0.6,72.9
	C1.7,69.2,3,65.3,3,61.5c0-9.1,3.4-16.5,11.9-19.2c16.8-5.4,29.6-15.2,39.7-29.7C60.5,4,70.7,2,80.3,1.9c17.4-0.2,34.8,0.7,52.2,1.6
	c9.7,0.5,16.3,6.5,21.4,14.5c4,6.4,7.1,13.6,15.1,16.6c1.4,0.5,3.1,2.3,3.3,3.7c1.2,10.2,2.2,20.5,3.1,30.8c0.1,0.9-0.7,2.5-1.5,2.7
	c-6.5,2.1-6.8,8.2-8.9,13.3c-2.5,5.9-7,8.8-13.6,8.6c-6.5-0.1-11.6-2.1-14.2-8.6C136.7,83.8,136,82.7,135.3,81.3L135.3,81.3z
	 M7.2,67.3c-1,2.2,1.3,3.2,4.9,3.4c19.1,1.2,38.2,2.3,57.4,3.7c3.3,0.2,6.6,1.6,9.9,2.4c2-11,6.9-18,14.3-17.8
	c13.1,0.3,13.8,10.9,15.3,20.9c8.5-1,16.4-2.4,24.5-2.8c6.5-0.3,10.4-2,10.5-9.3c0-2.6,1.1-5.9,2.9-7.6c3-2.9,6.9-6.2,10.7-6.6
	c5-0.5,8,4.1,9.6,8.8c0.7,2.2,1.2,4.4,1.8,6.6c0.9-0.1,1.7-0.3,2.5-0.4c-0.9-9.1-1.8-18.2-2.8-27.3c-0.1-1.1-1.3-2.5-2.3-2.9
	c-9.2-3.2-12.5-11.8-17.1-19c-4.4-6.8-10.2-10.8-18.1-11.6c-10-0.9-20-1.9-29.9-2c-9.8-0.1-19.6,0.9-29.4,1.5
	c8.4,1.9,16.7,2.5,24.9,3.4c4.5,0.5,8,2.2,5.1,8c-2.6,5.1-4.9,10.4-7.1,15.7c-1.7,4.2-4.6,5.6-9,5.2c-9.1-0.8-18.4-0.6-27.4-2.2
	c-17.2-3.1-31.2,4-43.8,10.9c1.2,5.4,3.1,9.8,2.6,13.8C16.9,63.9,11.8,65.1,7.2,67.3L7.2,67.3z M99.8,14.4
	c-9.5-0.6-17.9-1.4-26.3-1.6c-13.1-0.4-22.7,6.8-26.7,19.5c13.1,1.1,26.2,2.2,39.3,3.1c1.3,0.1,3.5-0.7,4.1-1.7
	C93.4,27.8,96.3,21.7,99.8,14.4z M75.4,84.2c1.5-6.2-2.2-5.7-5.7-5.9c-18.9-1-37.7-2.1-56.6-3.1c-2.8-0.1-8.1,0.6-8.1,1.1
	c-0.2,5.3,4.7,4.1,7.8,5.3c0.2,0.1,0.4,0.1,0.6,0.1c16.5,1.3,33,2.7,49.5,3.7C67.2,85.6,71.4,84.6,75.4,84.2L75.4,84.2z M83.4,82.5
	c1,3.4,1.2,6.6,2.7,9c1.6,2.4,4.4,5.4,6.8,5.6c2.4,0.1,5.8-2.4,7.3-4.8c4-6.5,4.4-13.7,0.8-20.7c-3.4-6.5-10.5-6.7-14-0.2
	C85.2,74.8,84.5,78.9,83.4,82.5z M163.6,73.9c0.3-7.2-2.5-12.5-6.7-12.8c-4.3-0.3-7.9,4.4-8.8,11.5c-0.9,7.7,2.4,15.2,6.9,15.4
	C159.1,88.1,163.2,81.4,163.6,73.9z"/>
<path d="M132.5,38.3c3,14.1,2.6,27.1-2.2,33.6V38.7c-9.4,0.8-17.6,1.8-25.8,2.3c-6.6,0.4-7.5-1-5.6-7.5c0.4-1.2,0.8-2.4,1.3-3.6
	c7.1-18.5,12.8-21.8,32.5-18.5c8.6,1.4,19.3,12.3,19.8,20.9c0.1,1.4-2.6,4-4.4,4.4C143.2,37.7,138,37.8,132.5,38.3L132.5,38.3z
	 M127.6,34.4c-0.6-4.4-0.9-8.2-1.7-11.9c-0.6-2.6-2.2-7.4-2.9-7.3c-4.4,0.5-10.2,0.8-12.6,3.7c-4,4.7-5.9,11.2-9.2,18
	C110.7,36,118.7,35.2,127.6,34.4z M132.1,33.2c3.3,0,5.8,0.1,8.3,0c2.7-0.1,5.3-0.4,8.2-0.6c-5.3-12.5-10.8-19.1-19.3-16.4
	C130.3,21.6,131.2,27.2,132.1,33.2z"/>
<path d="M20.4,56.2c1.7-0.5,3.4-1.4,5-1.4c5.3,0.2,10.6,0.5,15.8,1.3c2.3,0.4,4.4,2.3,6.5,3.5c-2,3-3.7,8.1-6.2,8.5
	c-5.4,1-11.4,0-17-1.1c-1.8-0.4-3-3.7-4.4-5.6c0.4-0.6,0.8-1.1,1.2-1.7c7.3,0.5,14.6,1,21.9,1.5c0.1-0.5,0.1-1,0.2-1.5
	c-7.5-0.7-14.9-1.3-22.4-2C20.8,57.2,20.6,56.7,20.4,56.2L20.4,56.2z"/>
<path d="M68.9,51.8c5.3,5.7,5.7,9.5,1.5,13.7c-3.9,3.9-14.1,4.7-17.8,1.2c-3.5-3.2-2-7,0.8-8.7C58.2,55.2,63.7,53.8,68.9,51.8
	L68.9,51.8L68.9,51.8z M54.5,61.2l0.9,3.4c3.8-0.6,7.7-1.1,11.5-2c0.9-0.2,2-2.5,1.8-3.5c-0.2-0.8-2.4-2.1-3.3-1.9
	C61.7,58.2,58.2,59.8,54.5,61.2L54.5,61.2z"/>
<path d="M68.9,51.8c5.7-3.5,11.5-7,17.2-10.5c0.6,1.1,1.1,2.1,1.7,3.2C81.5,46.9,75.2,49.3,68.9,51.8L68.9,51.8L68.9,51.8z"/>
<path d="M100.3,81.8c-0.2,1.3,0.1,2.9-0.5,3.7c-1.9,2.3-4.2,4.2-6.3,6.3c-1.7-2.2-3.6-4.2-5.1-6.6c-0.6-1-0.6-2.5-0.5-3.7
	c0.6-4.2,1.1-9.8,6.4-9.3c2.7,0.3,4.9,5.4,7.3,8.4C101.2,81.1,100.8,81.5,100.3,81.8L100.3,81.8z M95.6,76.3c-5.1,3.7-5,7.5,0,11.2
	V76.3z"/>
<path d="M163.8,74.8c-3.4,3.4-5.8,7.7-8.2,7.7c-4.9,0-5.4-5.2-4.4-8.7c0.8-3.1,3.8-5.7,5.8-8.6C158.9,68,160.9,70.8,163.8,74.8z"/>
</svg>

