<?xml version="1.0" encoding="UTF-8"?>
<svg id="Layer_2" data-name="Layer 2" xmlns="http://www.w3.org/2000/svg" viewBox="0 0 117.11 157.42">
  <defs>
    <style>
      .cls-1 { fill: #2057a7;
        stroke-width: 0px;
      }
    </style>
  </defs>
  <g id="Layer_1-2" data-name="Layer 1">
    <g>
      <path class="cls-1" d="M101.63,153.2c5.4.35,9.87.64,15.48,1-4.43,3.53-111.29,4.64-117.11.9,3.8-.52,7.61-1.05,12.28-1.69,0-1.36,0-3.11,0-4.85.08-17.82.31-35.64.15-53.45-.04-4.24,1.45-6.47,5.26-7.79,3.29-1.14,6.36-3.14,9.72-3.84,5.05-1.05,6.47-3.59,6.2-8.61-.45-8.47,0-16.98-.15-25.47-.07-3.7.75-6.61,4.58-7.85,3.13-1.01,3.89-3.26,3.41-6.21-.61-3.71,1.14-5.69,4.39-7.36,2.84-1.46,5.18-3.9,8.05-6.15-.33-.41.27.33,1.43,1.77V0h1.58v21.58c10.21-6.02,12.35,3.4,17.21,7.33.73.59,1,2.09,1,3.17,0,3.84-.09,7.5,3.28,10.45,1.1.96,1.21,3.36,1.27,5.12.27,7.32.14,14.66.63,21.96.13,1.88,1.54,4.2,3.09,5.35,4.39,3.28,9.07,6.2,13.8,8.97,3.25,1.9,4.37,4.32,4.35,8.12-.13,18.48.04,36.97.11,55.45,0,1.79,0,3.58,0,5.67ZM62.02,153.13V33.27c-7.4,3.73-14.09,7.31-20.98,10.46-3.08,1.41-3.92,3.27-3.9,6.53.15,32.82.13,65.63.18,98.45,0,1.45.15,2.89.24,4.42h6.43c.71-8.64,2.83-10.24,11.09-8.51.13,2.7.26,5.47.41,8.51h6.54ZM75.74,153.08c.26-.58.5-.88.5-1.17.02-34.95.03-69.91-.02-104.86,0-1.06-.28-2.42-.96-3.13-2.7-2.82-5.62-5.45-9.12-8.78,0,11.67-.05,22.4.1,33.14.01.9,1.33,1.89,2.21,2.63,2.28,1.94,4.66,3.77,6.99,5.64-.41.51-.82,1.02-1.23,1.53-2.55-1.82-5.11-3.65-7.96-5.69v7.36c3.33,2.39,6.26,4.5,9.19,6.61-.38.53-.77,1.06-1.15,1.59-2.54-1.64-5.08-3.27-7.98-5.14-.25,4.35-1.89,8.6,4.15,10.34,1.82.53,3.2,2.58,4.78,3.94-.36.43-.72.86-1.09,1.3-2.54-1.59-5.08-3.18-7.91-4.95v59.65h9.5ZM80.6,77.65v75.52h16.59c.26-.54.52-.83.52-1.12-.1-20.47-.17-40.94-.44-61.4-.02-1.28-1.27-2.94-2.43-3.74-4.49-3.14-9.17-6-14.24-9.26ZM33.08,85.03c-4.89,2.08-9.21,4.2-13.72,5.73-2.84.97-3.26,2.59-3.24,5.21.1,17.99.06,35.99.1,53.98,0,1.26.25,2.51.37,3.63h16.5v-68.55ZM45.74,37.49c4.49-2.3,8.8-4.76,13.32-6.76,3.23-1.43,3.98-3.34,2.56-6.5-4.55,2.23-8.94,4.55-13.48,6.54-3.08,1.35-3.85,3.28-2.4,6.71ZM71.02,35.08c.58-.3,1.15-.6,1.73-.91-1.93-2.95-3.85-5.9-6.32-9.67-2.06,6.23,2.54,7.72,4.6,10.58ZM47.82,153.32c6.32.96,4.4-2.99,4.26-5.96-4.7-.47-5.16,2.05-4.26,5.96Z"/>
      <path class="cls-1" d="M39.4,62.21c6.69-3.25,13.39-6.49,20.9-10.14-1.4,4.47-12.86,10.61-19.97,11.74-.31-.54-.62-1.07-.93-1.61Z"/>
      <path class="cls-1" d="M60.74,74.8c-6.67,2.9-13.35,5.8-20.02,8.71-.34-.75-.67-1.51-1.01-2.26,6.61-3.01,13.21-6.03,19.82-9.04l1.21,2.6Z"/>
      <path class="cls-1" d="M60.73,105.63c-6.63,2.53-13.26,5.06-20.46,7.81,1.47-4.09,12.59-9.08,19.66-9.53.26.57.53,1.15.79,1.72Z"/>
      <path class="cls-1" d="M60.77,64.65c-6.65,3.12-13.29,6.23-20.18,9.46.24-3.78,13.69-10.75,20.18-9.46Z"/>
      <path class="cls-1" d="M60.86,84.74c-6.65,2.88-13.3,5.77-20.58,8.92,1.32-4.16,14.97-10.52,20.58-8.92Z"/>
      <path class="cls-1" d="M39.05,53.43l20.28-10.02,1.16,2.4c-6.78,3.29-13.57,6.59-20.35,9.88-.37-.75-.73-1.51-1.1-2.26Z"/>
      <path class="cls-1" d="M60.79,115.87c-6.63,2.5-13.26,4.99-20.52,7.72,1.46-3.83,12.54-8.61,19.78-9.31.25.53.49,1.06.74,1.59Z"/>
      <path class="cls-1" d="M60.78,95.05c-6.72,2.8-13.44,5.6-20.16,8.41-.29-.67-.58-1.34-.87-2.01,6.32-3.73,13.17-6.22,20.17-8.39.29.67.57,1.33.86,2Z"/>
      <path class="cls-1" d="M60.35,135.73c-6.02,3.5-12.84,4.37-19.46,5.91-.22-.72-.43-1.44-.65-2.16,6.51-1.89,13.02-3.78,19.52-5.68.19.64.39,1.28.58,1.92Z"/>
      <path class="cls-1" d="M40.07,130.27c6.58-2.22,13.15-4.45,19.73-6.67.29.89.58,1.77.86,2.66-6.6,2.13-13.19,4.26-19.79,6.4-.27-.79-.54-1.59-.81-2.38Z"/>
      <path class="cls-1" d="M84.58,120.94c3.88.92,8.43.67,9.99,5.39-3.87-.88-8.27-.78-9.99-5.39Z"/>
      <path class="cls-1" d="M84.59,88.54c3.8,2.13,7.23,4.05,10.66,5.97-5.81,1.57-10.63-1.47-10.66-5.97Z"/>
      <path class="cls-1" d="M94.64,115.64c-5.26.26-9.28-1.84-10.6-6.45,4.18,1.89,7.68,3.48,11.18,5.07-.19.46-.39.92-.58,1.38Z"/>
      <path class="cls-1" d="M94.49,137.38c-3.66-1.52-7.13-2.97-10.61-4.42,5.84-2.11,10.95.39,10.61,4.42Z"/>
      <path class="cls-1" d="M84.93,141.25c3.56,1.14,7.13,2.28,10.69,3.42-.27.85-.54,1.7-.81,2.55-3.57-1.12-7.15-2.24-10.72-3.36.28-.87.56-1.74.84-2.61Z"/>
      <path class="cls-1" d="M84.83,99.32c3.54,1.58,7.09,3.17,10.63,4.75-.38.83-.75,1.66-1.13,2.5l-10.7-4.71c.4-.85.8-1.69,1.21-2.54Z"/>
      <path class="cls-1" d="M30.83,117.58c-3.17,4.01-7.41,3.98-11.31,5.17.36-3.51,4.97-5.65,11.31-5.17Z"/>
      <path class="cls-1" d="M29.81,100.81c-1.97,4.54-6.49,4.21-10.52,4.9,2.27-3.84,6.6-3.95,10.52-4.9Z"/>
      <path class="cls-1" d="M18.65,137.01l10.98-3.52.63,1.76c-2.83,3.43-7.02,3.18-10.88,3.83-.24-.69-.49-1.38-.73-2.07Z"/>
      <path class="cls-1" d="M30.08,93.48c-2.56,3.51-6.79,3.58-10.43,4.88-.29-.58-.59-1.16-.88-1.74,3.42-1.64,6.84-3.28,10.26-4.92.35.6.7,1.19,1.06,1.79Z"/>
      <path class="cls-1" d="M30.4,110.6c-3.54,1.31-7.09,2.62-10.63,3.93-.3-.76-.6-1.52-.9-2.28,3.53-1.35,7.06-2.69,10.59-4.04l.94,2.39Z"/>
      <path class="cls-1" d="M19.05,129.33c2.8-3.1,6.83-3.17,10.54-4.04.25.66.51,1.32.76,1.98-3.45,1.29-6.91,2.59-10.36,3.88-.31-.61-.62-1.21-.93-1.82Z"/>
      <path class="cls-1" d="M19.1,144.86l10.59-2.35c.19.83.39,1.67.58,2.5-3.53.82-7.06,1.63-10.59,2.45-.19-.87-.39-1.74-.58-2.6Z"/>
    </g>
  </g>
</svg>
