<?xml version="1.0" encoding="UTF-8"?>
<svg id="Layer_2" data-name="Layer 2" xmlns="http://www.w3.org/2000/svg" viewBox="0 0 128.54 139.02">
  <defs>
    <style>
      .cls-1 { fill: #2057a7;
        stroke-width: 0px;
      }
    </style>
  </defs>
  <g id="Layer_1-2" data-name="Layer 1">
    <g>
      <path class="cls-1" d="M59.3,39.88c6.93-10.74,15.27-18.87,27.93-19.79,5.18-.37,11.52.43,15.67,3.19,17.12,11.4,23.11,25.58,16.62,47.09-3.28,10.88-9.72,20.16-17.46,28.24-10.71,11.18-22.01,21.79-33.2,32.5-3.91,3.74-6.89,3.84-11.34-.21-13.54-12.34-27.33-24.46-40.04-37.62C7.12,82.59.33,69.59.01,54.04c-.33-16.11,7.37-28.2,20.71-32.35,13.97-4.34,27.59,1.21,36.38,14.82.62.96,1.24,1.91,2.2,3.37ZM60.14,127.08c13.88-14.64,27.84-28.48,40.71-43.26,8.58-9.85,13.31-21.89,12.51-35.41-1.16-19.79-20.7-30.06-37.11-19.03-5.17,3.48-8.81,9.28-13.04,14.11-1.25,1.43-2.11,3.19-3.62,5.53-1.39-2.02-2.29-3.33-3.19-4.63-2.55-3.67-4.76-7.65-7.73-10.94-6.4-7.08-14.65-9.89-23.96-7.76-9.72,2.22-16.09,8.48-18.49,18.28-3.21,13.12-.03,25.17,7.25,36.1,12.18,18.28,30.22,30.8,46.67,47Z"/>
      <path class="cls-1" d="M.12,120.21c10.06-.89,11.28-8.76,12.98-16.8,2.79,7.67,4.06,15.94,14.84,17.1-11.14,1.92-12.03,10.47-14.43,18.5-1.12-3.85-1.45-8.23-3.59-11.38-2.01-2.96-5.93-4.62-9.8-7.43ZM8.12,120.54c2,2.65,3.9,5.17,5.62,7.44,1.78-2.39,3.75-5.04,5.52-7.42-1.84-2.17-3.86-4.55-5.61-6.62-1.88,2.25-3.85,4.6-5.52,6.61Z"/>
      <path class="cls-1" d="M118.21,0c1.83,5.51,3.23,10.68,10.34,12.47-7.91,1.22-7.92,7.54-9.6,14.36-3.18-5.83-1.96-13.06-10.12-13.95,6.72-2.18,7.72-7.6,9.38-12.88Z"/>
      <path class="cls-1" d="M14.31,62.7c-.57-2.54-1.44-5.06-1.67-7.63-.76-8.51,3.88-17.48,10.58-20.32,1.42-.6,3.3-.14,4.97-.16-1.02,1.16-1.83,2.67-3.09,3.42-6.74,4.01-9.11,10.15-9.05,17.6.02,2.24,0,4.49,0,6.73-.58.12-1.16.24-1.74.36Z"/>
    </g>
  </g>
</svg>
