<?xml version="1.0" encoding="UTF-8"?>
<svg id="Layer_2" data-name="Layer 2" xmlns="http://www.w3.org/2000/svg" viewBox="0 0 143.07 150.64">
  <defs>
    <style>
      .cls-1 { fill: #2057a7;
        stroke-width: 0px;
      }
    </style>
  </defs>
  <g id="Layer_1-2" data-name="Layer 1">
    <g>
      <path class="cls-1" d="M96.48,44.18c-.68-2.36-1.08-4.86-2.09-7.07-3.07-6.7-.68-10.82,6.58-10.93,3.16-.05,6.33-.07,9.49,0,7.2.13,8.8,4.06,7.55,10.95-1.52,8.36-.98,17.11-1.03,25.7,0,1.11,1.67,2.33,2.74,3.32,4.77,4.44,9.44,9,14.46,13.14,3.66,3.01,3.62,5.53.31,8.58-1.61,1.48-3.01,3.21-4.76,5.1-2.4-1.65-4.49-3.08-6.6-4.53v56.5c5.09.65,9.42,1.21,13.75,1.77.03.76.06,1.53.08,2.29-1.93.47-3.85,1.34-5.78,1.34-40.01.18-80.03.27-120.04.33-3.21,0-6.41-.44-9.62-.67,0-.74-.01-1.49-.02-2.23,3.84-.31,7.69-.62,11.98-.97v-57.77c-.09-.01-.57-.25-.76-.1-5.76,4.33-9.45,3.53-12.54-3.25-.56-1.22.39-3.91,1.53-5.01,8.32-7.99,16.75-15.88,25.38-23.53,12.11-10.74,24.51-21.17,36.62-31.91,3.15-2.79,5.5-2.82,8.61-.04,7.46,6.66,15.15,13.07,22.75,19.58.48-.19.95-.38,1.43-.57ZM118.29,145.2c0-16.72-.7-32.55.26-48.28.58-9.51-2.16-15.69-9.6-21.59-14.07-11.17-27.28-23.42-40.72-35.11-.71.32-1.11.4-1.38.63-11.19,9.82-22.38,19.63-33.53,29.48-5.28,4.67-12.56,8.53-15.12,14.41-2.57,5.9-.31,13.86-.29,20.92.05,13.54.01,27.08.01,41.31,4.11-.22,7.81-.41,11.75-.62,0-14.5.09-28.08-.06-41.65-.04-4.03,1.55-5.87,5.52-5.89,4.09-.02,8.19-.26,12.28-.22,12.47.14,11.82-1.8,12.12,12.17.25,11.47.05,22.95.05,34.44h58.71ZM132.8,83.44c-21.61-18.87-43.01-37.55-64.74-56.52C46.56,45.97,25.3,64.81,4,83.68c1.24,1.64,2.21,2.92,3.4,4.49,5.17-4.49,9.8-8.49,14.4-12.51,13.87-12.12,27.81-24.15,41.53-36.45,3.48-3.12,5.9-3.15,9.39-.05,13.36,11.85,26.95,23.44,40.46,35.12,5.14,4.44,10.31,8.85,15.62,13.41,1.48-1.58,2.59-2.76,4-4.25ZM55.51,145.73v-42.73h-21.94v42.73h21.94ZM100.5,38.65c-3.76,11.3,5.21,14.89,11.72,21.02,0-4.31.05-7.74,0-11.17q-.2-11.15-11.71-9.85ZM115.81,34.24c-1.71-2.09-2.37-3.66-3.13-3.71-4.61-.28-9.24-.29-13.85-.14-.56.02-1.08,1.48-1.61,2.28.82.52,1.62,1.48,2.46,1.5,4.77.15,9.55.07,16.14.07Z"/>
      <path class="cls-1" d="M130.17,0c2,6.46,2.68,14.16,12.9,13.7-8.23,2.35-12.01,7.21-12.45,15.33-3.33-5.82-3.45-13.83-13.81-12.99,4.02-2.92,7.12-4.32,8.88-6.7,1.74-2.37,2.13-5.73,3.11-8.66.46-.23.91-.46,1.37-.69ZM126.23,14.33c1.42,1.72,2.53,3.06,3.68,4.45,1.16-1.65,2.17-3.09,3.14-4.47-1.24-1.58-2.3-2.93-3.57-4.55-1.22,1.72-2.17,3.05-3.25,4.57Z"/>
      <path class="cls-1" d="M90.11,98.28c4.64,0,9.28-.04,13.92.01,3.3.04,5.09,1.45,5,5.11-.15,6.49-.09,12.99.07,19.49.09,3.73-1.47,5.58-5.19,5.57-8.91-.01-17.81-.08-26.72-.02-3.74.02-5.35-1.7-5.37-5.39-.04-6.68-.23-13.36-.39-20.04-.08-3.3,1.65-4.75,4.77-4.77,4.64-.03,9.28,0,13.92,0,0,.01,0,.03,0,.04ZM75.69,123.85h12.66v-9.03h-12.66v9.03ZM105.25,114.95h-12.6v8.89h12.6v-8.89ZM88.33,110.77v-8.2h-12.77v8.2h12.77ZM92.27,110.55h12.7v-7.96h-13.06c.13,2.73.23,5.11.36,7.96Z"/>
      <path class="cls-1" d="M80.69,72.35c-.09,7.44-5.2,12.42-12.77,12.43-7.25.02-12.55-5.43-12.42-12.76.13-7.31,5.6-13.07,12.44-13.09,7.03-.02,12.84,6.09,12.75,13.42ZM65.07,81.59c.39-.37.78-.75,1.17-1.12v-6.73h-8.69c3.21,3.36,5.37,5.61,7.52,7.85ZM70.1,73.81v6.9c.42.31.85.61,1.27.92,2.04-2.18,4.09-4.36,6.13-6.54l-.98-1.28h-6.43ZM58.76,68.66c.25.4.51.8.76,1.2h6.86v-8.32c-3.19,2.98-5.41,5.05-7.63,7.12ZM78.33,69.82c-3.27-3.1-5.34-5.07-8.17-7.76v8.22c2.4-.13,4.33-.24,8.17-.46Z"/>
    </g>
  </g>
</svg>
