<?xml version="1.0" encoding="utf-8"?>
<!-- Generator: Adobe Illustrator 28.2.0, SVG Export Plug-In . SVG Version: 6.00 Build 0)  -->
<svg version="1.1" id="Layer_1" xmlns="http://www.w3.org/2000/svg" xmlns:xlink="http://www.w3.org/1999/xlink" x="0px" y="0px"
	 viewBox="0 0 800 800" style="enable-background:new 0 0 800 800;" xml:space="preserve">
<style type="text/css">
	.st0{fill:none;stroke:#0853BF;stroke-width:50;stroke-linecap:round;stroke-miterlimit:133.3333;}
	
		.st1{opacity:0.5;fill:none;stroke:#0853BF;stroke-width:50;stroke-linecap:round;stroke-linejoin:round;stroke-miterlimit:133.3333;enable-background:new    ;}
</style>
<path class="st0" d="M100,333.3c0-125.7,0-188.6,39.1-227.6c39-39,101.9-39,227.6-39h66.7c125.7,0,188.6,0,227.6,39.1
	c39,39,39,101.8,39,227.5v133.3c0,125.7,0,188.6-39.1,227.6c-39,39.1-101.9,39.1-227.6,39.1h-66.7c-125.7,0-188.6,0-227.6-39.1
	c-39-39-39-101.8-39-227.5V333.3z"/>
<path class="st1" d="M266.7,333.3h266.7"/>
<path class="st1" d="M266.7,466.7h166.7"/>
</svg>
