<?xml version="1.0" encoding="UTF-8"?>
<svg id="Layer_2" data-name="Layer 2" xmlns="http://www.w3.org/2000/svg" viewBox="0 0 153.31 113.61">
  <defs>
    <style>
      .cls-1 { fill: #2057a7;
        stroke-width: 0px;
      }
    </style>
  </defs>
  <g id="Layer_1-2" data-name="Layer 1">
    <path class="cls-1" d="M36.07,43.65c6.43,4.31,12.84,8.66,19.3,12.91,1.94,1.28,4.06,2.27,6.08,3.44,7.67,4.45,9.33,4.13,14.84-2.97,2.14-2.76,4.29-5.52,6.3-8.38,1.91-2.71,3.64-5.55,5.61-8.58,7.72,2.77,3.63,10.43,6.75,15.64,2.7-7.87,5.47-15.12,7.68-22.53,3.51-11.79,4.95-13.02,16-7.98,10.82,4.94,21.15,10.97,31.67,16.58,2.84,1.51,3.67,3.46,2.5,6.91-3.55,10.49-6.4,21.22-9.89,31.74-2.56,7.72-3.49,7.89-10.62,4.43-4.17-2.02-8.39-3.91-13.47-6.27,1.49,5.25,2.81,9.63,3.97,14.05,1.83,7,1.32,9.09-5.51,10.87-14.12,3.68-28.39,6.97-42.77,9.46-8.86,1.53-8.99.73-11.54-7.93-.23-.77-.56-1.52-.69-1.84-10.91,1.68-21.5,3.31-32.1,4.94-.16-.8-.32-1.6-.48-2.41,10.56-2.6,21.11-5.21,32.39-7.99-.5-2.58-1.07-5.53-1.62-8.4-6.42,1.11-12.27,2.17-18.13,3.13-6.05.99-8.17-.73-8.85-6.9-.23-2.09-.66-4.16-1.02-6.33-10.42,3.72-25.4,5.33-30.2,2.01,9.59-1.84,19.18-3.69,29.33-5.64-.19-1.58-.47-3.94-.81-6.76-10.47,1.06-20.43,3.73-30.53,2.33-.09-.74-.18-1.48-.27-2.22,10.02-1.51,20.05-3.02,30.3-4.57-.57-7.05-1.29-14.28-1.66-21.52-.1-2.02.18-4.56,1.33-6.06,9.04-11.7,18.29-23.22,27.57-34.73,1.97-2.44,4.72-3.01,6.83-.36,9,11.3,17.82,22.75,26.67,34.17.34.44.29,1.19-.43,2.39-9.56-11.38-19.12-22.76-29.25-34.81-9.06,11.35-17.9,22.41-27.14,33.99h46.57c.03.62.07,1.25.1,1.87-4.58.38-9.16.81-13.75,1.14-5.15.36-10.3.65-15.45.93-4.97.27-9.94.49-14.91.74-.24.5-.47,1-.71,1.5ZM107.38,27.5c-2.42,7.68-4.56,15.12-7.13,22.42-2.93,8.34-7.62,16.13-5.63,25.71.65,3.12-1.3,5.41-5.52,5.84-4.69.48-9.23,2.53-14.63,4.14,5.16,1.58,9.87,2.36,13.9,4.44,3.74,1.93,5.88.45,8.22-1.74,4.08-3.8,8.09-7.68,12.12-11.53.35.32.71.63,1.06.95-3.98,6.92-9.02,13.06-15.46,17.96-.93.71-3.2.15-4.62-.4-4.95-1.93-9.89-3.92-14.66-6.26-4.04-1.98-7.8-1.88-12.07.13.67,2.68,1.3,5.19,1.81,7.25,3.82,2.11,8.03-2.53,12.05,1.88-4.02,1.18-7.13,2.09-10.15,2.98-.1,7.54.58,8.59,5.68,7.56,12.04-2.42,24.12-4.76,36.03-7.75,11.63-2.92,11.49-3.24,9.81-15.09-.83-5.81-3.28-10.35-8.77-13.01-3.29-1.59-6.52-3.32-9.63-5.22-1.07-.66-1.71-2.03-2.55-3.08l.78-.65c13.06,6.33,26.12,12.67,40.11,19.45,3.75-12.08,7.19-23.17,10.94-35.24-2.47,1.01-3.94,1.7-5.46,2.22-4.99,1.73-9.97,3.5-15.02,5.05-4.52,1.39-7.69-.39-9.72-4.61-3.66-7.61-7.43-15.17-11.49-23.42ZM43.56,65.01c0,.46,0,.93.01,1.39-2.61.48-5.21.95-8.31,1.52.91,6.46,1.59,12.56,2.78,18.55.18.92,2.83,2.19,4.07,1.95,16.75-3.23,33.45-6.7,49.97-10.07-.84-11.76-1.63-22.79-2.5-34.9-4.91,6.83-8.96,12.71-13.27,18.38-4.81,6.32-6.42,6.91-13.35,3.33-10.12-5.23-19.96-10.99-29.9-16.52.59,4.81,1.25,10.13,1.89,15.39,3.1.35,5.85.67,8.61.98ZM111.5,25.69c-.34.38-.68.77-1.02,1.15,3.86,7.13,7.61,14.33,11.68,21.34.79,1.37,2.97,3.08,4.19,2.86,7.11-1.28,14.13-3.1,21.18-4.73-.03-.68-.05-1.36-.08-2.04-11.98-6.2-23.96-12.39-35.94-18.59Z"/>
  </g>
</svg>
