<?xml version="1.0" encoding="utf-8"?>
<!-- Generator: Adobe Illustrator 28.2.0, SVG Export Plug-In . SVG Version: 6.00 Build 0)  -->
<svg version="1.1" id="Layer_1" xmlns="http://www.w3.org/2000/svg" xmlns:xlink="http://www.w3.org/1999/xlink" x="0px" y="0px"
	 viewBox="0 0 800 800" style="enable-background:new 0 0 800 800;" xml:space="preserve">
<style type="text/css">
	
		.st0{opacity:0.5;fill:none;stroke:#F36942;stroke-width:50;stroke-linecap:round;stroke-linejoin:round;stroke-miterlimit:133.3333;enable-background:new    ;}
	.st1{fill:#F36942;}
</style>
<path class="st0" d="M292.8,733.3c-56.2-25.1-102.6-64.1-133.1-116.4"/>
<path class="st0" d="M494.2,72.9c55.9-15.9,113.6-0.8,153.9,40.4"/>
<path class="st1" d="M133.7,278.9l-12.4-21.7L133.7,278.9z M216.7,295.6l21.6-12.6L216.7,295.6z M106.8,358.4L85.2,371l0,0
	L106.8,358.4z M256.6,112.4l21.6-12.6l0,0L256.6,112.4z M284.6,160.5L263,173.1L284.6,160.5z M347.2,317.5c7,11.9,22.3,16,34.2,9
	c11.9-7,16-22.3,9-34.2L347.2,317.5z M251.3,404.4c7,11.9,22.3,16,34.2,9c11.9-7,16-22.3,9-34.2L251.3,404.4z M146.6,175.3
	L125,187.9L146.6,175.3z M394.6,97.7l21.6-12.6l0,0L394.6,97.7z M478.8,242.1l21.6-12.6L478.8,242.1z M534.9,338.3l12.4,21.7
	c5.8-3.3,10-8.8,11.7-15.2c1.7-6.4,0.8-13.3-2.6-19.1L534.9,338.3z M588.8,179.2l-21.6,12.6L588.8,179.2z M673,323.6l21.6-12.6l0,0
	L673,323.6z M233,575l21.6-12.6L233,575z M565.3,641.8l-12.4-21.7L565.3,641.8z M459.5,510c7,11.9,22.3,16,34.2,9
	c11.9-7,16-22.3,9-34.2L459.5,510z M146.1,300.6c21.1-12.1,41.9-4.7,49.1,7.6l43.2-25.2c-23.9-40.9-77.4-48.4-117.1-25.8
	L146.1,300.6z M121.3,257.2C81.6,279.9,61.2,329.9,85.2,371l43.2-25.2c-7-12-3.3-33.2,17.7-45.3L121.3,257.2z M235,125l28.1,48.1
	l43.2-25.2l-28.1-48.1L235,125z M263,173.1l84.2,144.4l43.2-25.2l-84.2-144.4L263,173.1z M294.5,379.2L238.3,283l-43.2,25.2
	l56.1,96.2L294.5,379.2z M238.3,283l-70.2-120.3L125,187.9l70.2,120.3L238.3,283z M185.9,117.4c21.1-12.1,41.9-4.7,49.1,7.6
	l43.2-25.2C254.3,58.9,200.7,51.4,161.1,74L185.9,117.4z M161.1,74C121.4,96.7,101,146.7,125,187.9l43.2-25.2
	c-7-12-3.3-33.2,17.7-45.3L161.1,74z M373,110.3l84.2,144.4l43.2-25.2L416.2,85.1L373,110.3z M457.2,254.7l56.1,96.2l43.2-25.2
	l-56.1-96.2L457.2,254.7z M324,102.7c21.1-12.1,41.9-4.7,49.1,7.6l43.2-25.2c-23.9-40.9-77.4-48.4-117.1-25.8L324,102.7z
	 M299.1,59.3C259.5,82,239,132,263,173.1l43.2-25.2c-7-12-3.3-33.2,17.7-45.3L299.1,59.3z M567.2,191.8l84.2,144.4l43.2-25.2
	l-84.2-144.4L567.2,191.8z M518.1,184.2c21.1-12.1,41.9-4.7,49.1,7.6l43.2-25.2c-23.9-40.9-77.4-48.4-117.1-25.8L518.1,184.2z
	 M493.3,140.8c-39.7,22.7-60.1,72.7-36.1,113.8l43.2-25.2c-7-12-3.3-33.2,17.7-45.3L493.3,140.8z M85.2,371l126.3,216.6l43.2-25.2
	L128.4,345.8L85.2,371z M552.8,620.1c-112.2,64.1-244.6,34.3-298.2-57.7l-43.2,25.2c70.4,120.7,235.5,150.6,366.2,75.9L552.8,620.1z
	 M651.4,336.2c53.5,91.8,13.6,219.8-98.5,283.9l24.8,43.4C708.5,588.7,765,431.8,694.6,311L651.4,336.2z M502.7,484.8
	c-22.5-38.6-6.8-95.4,44.7-124.8l-24.8-43.4c-70.1,40-102.5,125.7-63,193.4L502.7,484.8z"/>
</svg>
