<?xml version="1.0" encoding="UTF-8"?>
<svg id="Layer_2" data-name="Layer 2" xmlns="http://www.w3.org/2000/svg" viewBox="0 0 96.3 141.12">
  <defs>
    <style>
      .cls-1 { fill: #2057a7;
        stroke-width: 0px;
      }
    </style>
  </defs>
  <g id="Layer_1-2" data-name="Layer 1">
    <path class="cls-1" d="M74.06,40.51c3.73,3.66,7,8.15,6.25,14.44-.04.33-.13.81.04.98,5.66,5.49,5.06,13.33,7.6,19.98,2.9,7.61,2.31,14.68-1.83,21.44-5.6,9.14-13.98,15.46-22.51,21.62-9.27,6.68-18.61,13.28-27.6,20.32-3.55,2.78-5.3,2.37-7.99-1.06-7.08-9.02-14.61-17.69-21.94-26.52-1.03-1.25-1.97-2.57-2.96-3.86.31-.34.61-.68.92-1.02,2.27,1.89,4.78,3.56,6.76,5.72,5.96,6.47,11.8,13.06,17.51,19.75,2.37,2.78,3.98,3.96,7.59,1.07,13.98-11.16,28.43-21.73,42.48-32.8,7.72-6.09,10.21-15.49,6.76-22.81-2.05,2.98-4.13,6.02-6.21,9.05-.7-.24-1.41-.49-2.11-.73,3.67-8.07,7.74-16.12,2.52-24.92-2.93,3.85-5.63,7.39-8.32,10.94-.48-.17-.96-.35-1.44-.52,3.97-9.47,9.24-18.88,2.11-29.04-2.46,2.7-4.83,5.31-7.21,7.91-.46-.36-.92-.71-1.38-1.07.46-.88.8-1.85,1.4-2.62,8.34-10.74,16.83-21.36,25-32.23,2.28-3.03,5.05-6.53,1.58-11.28-1.7,1-3.55,1.75-4.97,2.99-15.01,13.1-29.92,26.32-44.96,39.39-2.86,2.48-5.95,4.82-9.25,6.63-5.17,2.84-9.22.6-9.64-5.54-.48-6.95.06-13.97-.4-20.92-.43-6.45-2.2-12.53-8.83-15.6-1.14-.53-2.5-.58-4.59-1.04.36,5.04,1.05,9.57.94,14.08-.33,13.62-1.11,27.22-1.41,40.84-.13,5.75.09,11.57.87,17.26,1.29,9.49-2.95,16.9-7.55,24.29-.43-.14-.85-.27-1.28-.41.82-2.13,1.41-4.39,2.49-6.38,3.86-7.09,3.87-14.29,2.6-22.2-1.14-7.06.1-14.48.13-21.75.05-12.93.03-25.87-.07-38.8-.03-3.73-1.7-8.21,2.9-10.12,4.41-1.84,8.36.16,11.75,3.37,5.32,5.05,5.92,11.73,6.35,18.37.29,4.47-.14,8.98-.11,13.47.01,2.24.3,4.47.49,6.97,9.55-2.5,14.75-9.78,21.28-15.22,11.5-9.57,23-19.15,34.5-28.72.38-.32.76-.67,1.19-.9,3.26-1.76,6.57-5.18,10.35-1.97,3.97,3.37,2.4,8.1.18,11.43-6.22,9.35-13.09,18.28-19.98,27.75Z"/>
  </g>
</svg>
