<?xml version="1.0" encoding="utf-8"?>
<!-- Generator: Adobe Illustrator 28.2.0, SVG Export Plug-In . SVG Version: 6.00 Build 0)  -->
<svg version="1.1" id="Layer_1" xmlns="http://www.w3.org/2000/svg" xmlns:xlink="http://www.w3.org/1999/xlink" x="0px" y="0px"
	 viewBox="0 0 800 800" style="enable-background:new 0 0 800 800;" xml:space="preserve">
<style type="text/css">
	.st0{fill:none;stroke:#F36942;stroke-width:50;stroke-miterlimit:133.3333;}
	
		.st1{opacity:0.5;fill:none;stroke:#F36942;stroke-width:50;stroke-linecap:round;stroke-linejoin:round;stroke-miterlimit:133.3333;enable-background:new    ;}
</style>
<path class="st0" d="M333.3,733.3c147.3,0,266.7-119.4,266.7-266.7C600,319.4,480.6,200,333.3,200C186.1,200,66.7,319.4,66.7,466.7
	c0,41.2,9.3,80.2,26,115c5.7,12,7.7,25.5,4.3,38.3l-10.9,40.9c-8.6,32.2,20.8,61.7,53.1,53.1L180,703c12.8-3.4,26.4-1.4,38.3,4.3
	C253.1,724,292.1,733.3,333.3,733.3z"/>
<path class="st1" d="M600,483.4c2.2-0.9,4.4-1.9,6.6-2.9c12.1-5.5,25.6-7.6,38.4-4.1l15.9,4.2c32.2,8.6,61.7-20.8,53.1-53.1
	l-4.2-15.9c-3.4-12.8-1.4-26.4,4.1-38.4c12.5-27.4,19.5-57.8,19.5-89.9c0-119.7-97-216.7-216.7-216.7c-90.1,0-167.3,55-200,133.2"/>
<path class="st1" d="M217.3,466.7h0.3 M333.6,466.7h0.3 M450,466.7h0.3"/>
</svg>
