<?xml version="1.0" encoding="UTF-8"?>
<svg id="Layer_2" data-name="Layer 2" xmlns="http://www.w3.org/2000/svg" viewBox="0 0 141.89 156.72">
  <defs>
    <style>
      .cls-1 { fill: #2057a7;
        stroke-width: 0px;
      }
    </style>
  </defs>
  <g id="Layer_1-2" data-name="Layer 1">
    <path class="cls-1" d="M100.87,23.19c20.01,2.27,41.84,33.89,40.99,60.12-1.32,41.04-23.45,68.42-64.08,72.94-35.72,3.97-68.14-16.95-76.04-53.12C-5.66,69.2,11.34,38.23,35.81,28c-1.38,1.49-2.59,3.18-4.16,4.42-8.57,6.81-15.71,14.65-20.51,24.7-8.28,17.33-8.76,34.8-1.95,54.1,1.27-5.85,2.38-10.38,3.21-14.97,1.03-5.72,4-9.41,9.49-11.76,7.47-3.19,14.66-7.04,21.87-10.81,6.99-3.65,10.61-11.68,8.98-19.4-.17-.79-.32-1.82-.86-2.24-8.99-7-6.91-18.23-10.25-27.37-.89-2.43.45-6.49,2.1-8.89C51.4,4.69,63.59-2.45,78.57.78c10.47,2.26,13.43,7.75,13.52,18.4.04,4.14-1.51,10.98,5.82,13.19.77.23,1.23,6.7-.27,8.23-4.69,4.8-3.84,10.98-5.76,16.41-1.54,4.36-4.19,8.32-7.02,13.74,5.2,2.71,11.09,6.27,17.36,8.97,16.46,7.08,14.38,4.9,18.31,21.55.88,3.72,1.65,7.46,2.4,11.21.71,3.56,1.34,7.13,2.03,10.86,4.93-4.45,9.88-16.38,11.21-25.98,1.36-9.81,1.49-19.52-.82-29.24-2.27-9.55-5.97-18.61-12.57-25.72-6.42-6.91-14.2-12.56-21.93-19.23ZM30.47,115.8c.57-.14,1.14-.28,1.71-.42.67,1.93,1.66,3.81,1.96,5.8.85,5.58,1.65,11.19,2.01,16.82.19,2.89,1.04,4.78,3.82,5.6,8.1,2.38,16.16,4.98,24.36,6.96,3.2.77,6.73.13,10.41.13-8.42-26.12-16.7-51.81-24.98-77.5-.35-.15-.71-.3-1.06-.45-2.15,5.86-4.31,11.72-6.41,17.45,3.42,1.88,6.11,3.36,9.07,4.98-1.04,1.6-1.56,2.9-2.5,3.75-3.86,3.52-3.07,6.54-.28,10.63,7.01,10.3,13.41,21.01,19.97,31.61,1.16,1.88,1.91,4.02,2.85,6.04-.39.25-.79.51-1.18.76-1.43-1.87-3-3.66-4.28-5.63-6.25-9.62-12.4-19.3-18.63-28.93-3.57-5.52-9.03-10.9-.01-16.78-1.36-.62-1.94-.89-2.53-1.14q-6.57-2.77-4.44-9.44c.63-1.99,1.23-4,2.05-6.69-5.57,2.7-10.23,5.9-15.38,7.26-9.06,2.39-11.39,8.86-12.31,16.81-.57,4.93-2.98,10.38-1.6,14.64,3.19,9.85,11.48,15.93,20.44,22.36-1.12-9-2.09-16.82-3.06-24.63ZM85.57,144.68c-.65-.23-1.3-.45-1.95-.68.53-2.13.91-4.31,1.62-6.39,3.05-8.96,5.91-18,9.39-26.79,2.6-6.55,2.8-11.97-3.97-15.95-.18-.11-.13-.61-.27-1.46,1.64-1.35,3.47-2.87,5.58-4.61-3.01-4.34-5.95-8.56-8.88-12.77,2.66,25.6-2.58,50.02-7.23,76.16,9.12-3.68,17.14-6.68,24.92-10.23,1.63-.74,3.05-3.37,3.36-5.32,1.01-6.4,1.42-12.9,2.16-19.34.18-1.59.78-3.14,1.18-4.71.56.1,1.12.19,1.68.29-.59,8.06-1.17,16.11-1.84,25.25,2.85-2.37,4.93-3.77,6.58-5.57,1.63-1.78,4.25-4.17,3.98-5.92-1.5-9.61-3.75-19.11-5.75-28.64-.34.05-.67.1-1.01.14-.5,2.1-1.01,4.19-1.51,6.29-1.13-4.19-.9-8.23-1.24-12.21-.14-1.61-1.1-3.88-2.37-4.55-4.69-2.48-9.67-4.42-15.38-6.93,2.22,3.5,3.87,6.11,5.58,8.81-2.04,1.75-3.74,3.21-5.96,5.11,7.39,2.96,6.94,7.94,4.6,13.73-1.48,3.68-2.12,7.7-3.52,11.42-3.12,8.33-6.49,16.58-9.75,24.85ZM58.94,43.24c-2.47-2.63-3.87-4.39-5.56-5.81-.91-.76-2.56-1.55-3.41-1.2-.84.35-1.47,2.11-1.51,3.27-.17,4.68,3.17,8.5,7.66,9.42,1.08.22,2.57,1.04,2.89,1.94,2.79,7.85,9.31,10.9,16.47,13.07,8.56,2.6,11.6.83,13.7-7.67.64-2.58,1.23-5.17,1.73-7.77.18-.94.45-2.23-.01-2.86-2.17-2.95-4.58-5.73-6.99-8.68-1.25,4.48-3.12,8.86-9.29,8.46-5.08-.33-7.09-3.59-7.5-8.29h-7.06c-.3,1.69-.55,3.08-1.1,6.12ZM89.2,21.54c-6.22-.86-11.51-1.54-16.77-2.34-2.12-.32-4.19-1.17-6.32-1.3-2.36-.14-4.08.62-3.81,3.78.33,3.89.08,7.83.08,11.04,8.97-.44,18.46-.9,28.51-1.39-.72-4.16-1.32-7.67-1.69-9.79ZM79.88,70.63c-12.11-2.01-18.74-9.57-23.63-19.33-2.78,11.5.59,19.71,11.35,24.35,1.2.52,2.2,1.63,3.43,1.93,1.08.27,2.76.22,3.45-.45,1.94-1.88,3.49-4.15,5.4-6.51ZM67.11,116.32c.31-.03.62-.07.93-.1.52-5.93.61-11.95,1.72-17.77.75-3.95.12-6.67-3.1-8.96-1.31,1.15-2.52,2.21-3.8,3.34-1.46-.99-2.71-1.84-4.54-3.08,3.09,9.33,5.94,17.95,8.8,26.58ZM62.76,89.42c2.34-3.06,4.49-5.86,6.51-8.49-5.46-4.08-10.53-7.88-16.03-12-.06,8.5,3.52,14.77,9.52,20.49ZM82.67,117.02c.29-5.68.4-11.38.94-17.04.45-4.83.28-9.1-5.27-10.86-2.35,4.4-1.47,11.58,4.34,27.89ZM82.52,87.5v-14.75c-2.82,3.2-4.71,5.35-6.68,7.59,1.69,1.92,3.09,3.53,4.52,5.12.42.47.91.87,2.16,2.05Z"/>
  </g>
</svg>
