<?xml version="1.0" encoding="utf-8"?>
<!-- Generator: Adobe Illustrator 28.2.0, SVG Export Plug-In . SVG Version: 6.00 Build 0)  -->
<svg version="1.1" id="Layer_1" xmlns="http://www.w3.org/2000/svg" xmlns:xlink="http://www.w3.org/1999/xlink" x="0px" y="0px"
	 viewBox="0 0 800 800" style="enable-background:new 0 0 800 800;" xml:space="preserve">
<style type="text/css">
	
		.st0{opacity:0.5;fill:none;stroke:#0853BF;stroke-width:50;stroke-linecap:round;stroke-linejoin:round;stroke-miterlimit:133.3333;enable-background:new    ;}
	.st1{fill:#0853BF;}
	.st2{fill:none;stroke:#0853BF;stroke-width:40;stroke-miterlimit:10;}
</style>
<path class="st0" d="M564.1,652.6c-24.5,42-61.8,73.4-106.9,93.5"/>
<path class="st0" d="M159.6,239.1c32.4-33.1,78.7-45.2,123.7-32.5"/>
<g>
	<path class="st1" d="M385.8,241.8L385.8,241.8l-67.6,116.1L282.5,419c44.3,35.2,62.1,95.3,33.8,143.9h0.1
		c-5.6,9.6-17.9,12.9-27.5,7.2c-9.6-5.6-12.9-17.9-7.2-27.5c18.1-31,5.5-76.7-35.9-100.3l0,0c-4.6-2.7-8-7.1-9.3-12.2
		c-1.4-5.1-0.6-10.7,2.1-15.3h-0.1l45.1-77.3v-0.1l0,0c5.6-9.6,2.7-26.7-14.2-36.4v0.1c-17-9.7-33.7-3.8-39.5,6.1L195.2,287
		c19.2-32.9,62.2-38.9,94.1-20.7c9.4,5.4,17.4,12.6,23.6,21l38.3-65.7h-0.1"/>
	<path class="st1" d="M469.6,223c21.5-23.6,58.4-26.4,86.5-10.4c31.9,18.2,48.3,58.4,29,91.5l-26.9,46.1c10.3,1.1,20.6,4.3,29.8,9.6
		c31.9,18.2,48.3,58.4,29,91.4l-101.5,174h0.1c-56.6,97-189.2,121-294.2,61l19.9-34.9c90.1,51.5,196.5,27.6,239.6-46.3h-0.1
		l101.5-174c5.6-9.6,2.7-26.7-14.2-36.4v0.1c-16.9-9.7-33.6-3.8-39.4,6.1h0.1l-45.1,77.3l-34.8-20.2l34.7,20.2
		c-5.6,9.6-17.9,12.9-27.5,7.2c-9.6-5.6-12.9-17.9-7.2-27.5l0,0l45.1-77.3h-0.1c0.4-0.7,0.9-1.4,1.3-2.1l55.2-94.6h-0.1
		c5.6-9.6,2.7-26.7-14.2-36.4l0,0c-17-9.7-33.7-3.8-39.5,6.1l-21.1,36.2c-0.4,0.8-0.9,1.6-1.4,2.5l-67.7,116
		c-5.6,9.6-17.9,12.9-27.5,7.2s-12.9-17.9-7.2-27.5l67.6-116h-0.1l0.7-1.3"/>
	<path class="st1" d="M127.4,403.1L127.4,403.1l67.7-116l34.7,20.2l-67.7,116c-43,73.8-10.9,176.6,79.1,228.1l-19.9,34.9
		C116.2,626.2,70.9,500.1,127.4,403.1z"/>
</g>
<path class="st2" d="M316.7,321L457.6,77.6C482.1,43.1,521,63.4,521,63.4c26,13.3,38,41.7,24.4,65.1L397.8,383.3"/>
</svg>
