<?xml version="1.0" encoding="UTF-8"?>
<svg id="Layer_2" data-name="Layer 2" xmlns="http://www.w3.org/2000/svg" viewBox="0 0 139.42 140.46">
  <defs>
    <style>
      .cls-1 { fill: #2057a7;
        stroke-width: 0px;
      }
    </style>
  </defs>
  <g id="Layer_1-2" data-name="Layer 1">
    <g>
      <path class="cls-1" d="M100.08,36.66c-.68-.8-1.35-1.61-2.22-2.64-.48,1.36-.89,2.55-1.31,3.73-.38.03-.77.06-1.15.09-2.37-11.23-4.75-22.46-7.11-33.6-1.34,0-2.05-.11-2.72.02-25.43,4.89-50.85,9.8-76.88,14.83.33,2.69.63,5.19,1.01,8.28,1.89-.26,3.36-.66,4.83-.62,1.83.05,3.81.11,5.37.89.51.26.22,3.9-.24,4.02-1.72.47-3.67.18-5.53.06-.83-.05-1.64-.34-3.35-.73.55,4.06,1.02,7.56,1.45,10.73,3.58,2.46,10.15-4.87,10.44,2.61.32,8.31-6.15-.08-9.24,2.6.18,1.33.52,3,.62,4.68.28,4.46,1.59,6.81,6.6,4.25,1.06-.54,3.46.22,4.39,1.2.69.73.56,3.41-.2,4.06-.95.82-2.94.68-4.45.54-1.25-.12-2.45-.84-4.76-1.69.72,4.43,1.27,7.78,1.95,11.91,2.22-.46,4.16-1.13,6.1-1.16,1.39-.02,3.42.43,4.02,1.38.63,1.02.4,3.28-.39,4.24-.62.77-2.68.68-4.03.47-1.39-.21-2.68-1.02-5-1.98.76,4.54,1.32,7.93,1.98,11.88,2.09-.4,3.76-1.06,5.37-.94,1.71.12,3.57.7,4.94,1.68.51.36.04,3.43-.42,3.55-1.58.4-3.38.18-5.05-.08-1.1-.17-2.12-.82-4.14-1.66.64,4.46,1.15,8,1.75,12.21,2.37-.45,4.4-1.29,6.32-1.08,1.65.18,3.42,1.3,4.61,2.51.46.47-.24,3.17-.95,3.44-1.33.51-3.1.19-4.6-.15-1.24-.27-2.37-1.06-4.73-2.18.77,4.74,1.34,8.27,2.02,12.42,2.18-.36,4.03-1.01,5.81-.85,1.64.15,3.61.79,4.64,1.94.59.66.05,3.53-.78,3.99-1.17.66-3.11.19-4.65-.12-1.27-.26-2.45-1-3.74-1.57-.32.97-.44,1.14-.41,1.29,1.93,11.4-.91,11.57,12.21,8.85,19.83-4.11,39.68-8.08,59.34-12.08-4.83-4.19-9.79-8.48-15.1-13.08-8.32,1.81-17.53-4.9-18.86-13.68-7.34,2.49-14.84,5.03-22.34,7.57-.31-.47-.62-.94-.92-1.41,3.4-9.15,7.64-17.76,16.52-23.9-5.71-4.49-3.43-8.92.04-13.1,3.94-4.75,8.36-9.12,12.14-13.99,5.91-7.61,13.24-8.83,21.6-5.26,3.43,1.47,5.67.86,8.43-1.47,7.02-5.9,14.25-11.56,21.61-17.03,5.59-4.16,8.97-3.66,12.72,1.17,3.54,4.55,3.07,8.35-2.13,12.72-6.2,5.2-12.65,10.1-19.26,15.34,9.17,7.6,9.66,19.07,13.91,28.71,3.47,7.88,5.63,16.33,11.98,22.7.95.95,1.22,2.58,1.26,4.23-6.27-2.89-10.15-7.91-12.55-13.92-3.79-9.49-6.93-19.23-10.73-28.71-1.44-3.59-3.96-6.74-6.29-10.6-4.55,3.58-8.16,6.32-11.67,9.21-1.77,1.46-3.29,2.95.13,4.65.62.31.24,3.1-.05,4.68-.39,2.06-1.16,4.05-1.9,6.49,1.62.16,3.16.32,4.7.48.16.43.31.87.47,1.3-1.64.76-3.22,1.91-4.94,2.2-6.2,1.06-11.3-1.71-16.19-5.1-3.47-2.4-6.87-5.04-10.65-6.82-1.66-.78-4.77-.38-6.15.77-.98.82-.92,4.34.04,5.69,2.09,2.96,4.74,5.76,7.72,7.83,6.49,4.49,12.06,9.69,16.04,16.57,3.77,6.51,9.95,10.07,16.85,11.98,9.16,2.53,10.36,11.41,14.97,17.55.36.48-.35,1.78-.57,2.7-.87-.36-2.04-.48-2.56-1.12-2.2-2.72-4.2-5.6-6.04-8.1-25.33,5.15-50.17,10.24-75.03,15.23-3.72.75-8.81-3.27-11.06-8.03-.55-1.17-1.9-1.99-2.91-2.93-1.92-1.79-4.95-3.3-5.45-5.4-.36-1.55,2.52-3.93,4.11-5.81.51-.6,1.53-.76,1.66-.82-3.42-2.85-7.87-4.8-8.36-7.47-.48-2.62,3.06-5.98,4.79-8.91-10.12-3.84-10.36-5.14-1.98-14.47-11.96-3.61-10.34-9.34-2.3-14.48-2.91-2.16-7.46-3.86-8.11-6.51-.6-2.48,2.94-5.97,4.35-8.47-2.15-1.89-6.16-3.83-7.02-6.72-.63-2.11,2.89-5.45,4.79-8.62-.12-.05-1.27-.23-2.08-.84-2-1.51-5.02-2.99-5.42-4.93-.38-1.91,2-4.35,3.11-6.59.82-1.65,2.32-3.41,2.19-5-.57-6.57.49-8.38,7.22-9.75,19.52-3.96,39.05-7.87,58.59-11.76,4.84-.96,9.72-1.74,14.57-2.69,3.32-.65,5.18.68,6.63,3.71.97,2.02,3.95,3.32,4.4,5.31,2,8.89,3.41,17.91,5.04,26.88-.56.2-1.13.4-1.69.59ZM91.8,45.97c-.15-.74-.31-1.48-.46-2.22-4.67.22-10.81-1.35-13.73,1.03-6.99,5.69-12.54,13.19-18.49,20.11-.77.89-.46,2.7-.73,4.66,9.26-4.1,17.06-8.22,20.65-16.33,6.34.34,8.61-5.08,12.75-7.25ZM71.73,66.87c.09.51.18,1.02.26,1.54,1.5-.14,3.43.27,4.43-.51,12.62-9.86,25.07-19.94,37.64-29.85,2.39-1.88,2.75-3.31-.26-5.28-14.03,11.38-28.05,22.74-42.07,34.11ZM119.16,38.22c-.53-.18-1.06-.36-1.59-.54-13.44,10.87-26.89,21.74-40.33,32.61.26.59.52,1.18.78,1.77,1.59-.51,3.5-.61,4.72-1.58,11.86-9.39,23.63-18.89,35.32-28.49.83-.68.75-2.48,1.09-3.76ZM121.34,26.92c2.11,2.72,3.98,5.13,5.89,7.6,3.52-2.33,6.56-4.4,3.28-8.52-3-3.78-5.93-2.63-9.18.93ZM50.87,82.15c-.9,3.52-1.58,6.19-2.27,8.85,2.59-.15,5.17-.29,8.8-.5-2.61-3.34-4.12-5.26-6.53-8.35ZM70.13,89.1c-.83.42-1.65.85-2.48,1.27.9,2.15,1.8,4.29,2.7,6.44,1-.78,2.97-1.94,2.84-2.28-.74-1.92-1.98-3.64-3.06-5.43Z"/>
      <path class="cls-1" d="M31.35,32.94c15.98-3.28,31.96-6.56,47.94-9.84.19.96.39,1.92.58,2.88-16,3.19-32,6.38-47.99,9.57-.17-.87-.35-1.74-.52-2.62Z"/>
      <path class="cls-1" d="M80.72,35.5c-15.62,3.49-31.23,6.98-46.85,10.47-.21-.91-.42-1.83-.63-2.74,15.61-3.46,31.21-6.93,46.82-10.39.22.89.44,1.78.66,2.66Z"/>
      <path class="cls-1" d="M55.58,51.53c-6.77,1.39-13.53,2.78-20.3,4.17l-.5-2.36c6.78-1.46,13.56-2.93,20.34-4.39.15.86.3,1.71.45,2.57Z"/>
    </g>
  </g>
</svg>
