<?xml version="1.0" encoding="utf-8"?>
<!-- Generator: Adobe Illustrator 28.2.0, SVG Export Plug-In . SVG Version: 6.00 Build 0)  -->
<svg version="1.1" id="Layer_1" xmlns="http://www.w3.org/2000/svg" xmlns:xlink="http://www.w3.org/1999/xlink" x="0px" y="0px"
	 viewBox="0 0 800 800" style="enable-background:new 0 0 800 800;" xml:space="preserve">
<style type="text/css">
	.st0{fill:none;stroke:#0853BF;stroke-width:50;stroke-linecap:round;stroke-linejoin:round;stroke-miterlimit:133.3333;}
	
		.st1{opacity:0.5;fill:none;stroke:#0853BF;stroke-width:50;stroke-linecap:round;stroke-linejoin:round;stroke-miterlimit:133.3333;enable-background:new    ;}
</style>
<path class="st0" d="M33.3,733.3h733.3"/>
<path class="st1" d="M659.3,733.7V585"/>
<path class="st0" d="M660,363c-40.7,0-73.3,32.7-73.3,73.3V512c0,40.7,32.7,73.3,73.3,73.3s73.3-32.7,73.3-73.3v-75.7
	C733.3,395.7,700.7,363,660,363z"/>
<path class="st0" d="M70,733.3V201c0-67,33.3-100.7,99.7-100.7h207.7c66.3,0,99.3,33.7,99.3,100.7v532.3"/>
<path class="st1" d="M193.3,275h165"/>
<path class="st1" d="M193.3,400h165"/>
<path class="st1" d="M275,733.3v-125"/>
</svg>
