<?xml version="1.0" encoding="utf-8"?>
<!-- Generator: Adobe Illustrator 28.2.0, SVG Export Plug-In . SVG Version: 6.00 Build 0)  -->
<svg version="1.1" id="Layer_1" xmlns="http://www.w3.org/2000/svg" xmlns:xlink="http://www.w3.org/1999/xlink" x="0px" y="0px"
	 viewBox="0 0 800 800" style="enable-background:new 0 0 800 800;" xml:space="preserve">
<style type="text/css">
	
		.st0{opacity:0.5;fill:none;stroke:#F36942;stroke-width:50;stroke-linecap:round;stroke-linejoin:round;stroke-miterlimit:133.3333;}
	.st1{fill:none;stroke:#F36942;stroke-width:50;stroke-linecap:round;stroke-linejoin:round;stroke-miterlimit:133.3333;}
</style>
<g>
	<path class="st0" d="M100,254l90.7,75.6c6,5,13.5,7.7,21.3,7.7h375.9c7.8,0,15.3-2.7,21.3-7.7L700,254"/>
	<path class="st1" d="M216.7,466.7h0.3 M583.3,466.7h0.3 M272,150h256c23.9,0,46,12.8,57.9,33.6l96.6,169
		c11.5,20.1,17.6,42.9,17.6,66.2v197.9c0,18.4-14.9,33.3-33.3,33.3h-33.3c-18.4,0-33.3-14.9-33.3-33.3v-33.3H200v33.3
		c0,18.4-14.9,33.3-33.3,33.3h-33.3c-18.4,0-33.3-14.9-33.3-33.3V418.7c0-23.2,6.1-46,17.6-66.2l96.6-169
		C226,162.8,248.1,150,272,150z M233.3,466.7c0,9.2-7.5,16.7-16.7,16.7c-9.2,0-16.7-7.5-16.7-16.7s7.5-16.7,16.7-16.7
		C225.9,450,233.3,457.5,233.3,466.7z M600,466.7c0,9.2-7.5,16.7-16.7,16.7c-9.2,0-16.7-7.5-16.7-16.7s7.5-16.7,16.7-16.7
		C592.5,450,600,457.5,600,466.7z"/>
</g>
</svg>
