<?xml version="1.0" encoding="utf-8"?>
<!-- Generator: Adobe Illustrator 28.2.0, SVG Export Plug-In . SVG Version: 6.00 Build 0)  -->
<svg version="1.1" id="Layer_1" xmlns="http://www.w3.org/2000/svg" xmlns:xlink="http://www.w3.org/1999/xlink" x="0px" y="0px"
	 viewBox="0 0 800 800" style="enable-background:new 0 0 800 800;" xml:space="preserve">
<style type="text/css">
	.st0{fill:none;stroke:#0853BF;stroke-width:50;stroke-miterlimit:133.3333;}
	.st1{fill:#0853BF;}
	
		.st2{opacity:0.5;fill:none;stroke:#0853BF;stroke-width:50;stroke-linecap:round;stroke-miterlimit:133.3333;enable-background:new    ;}
</style>
<path class="st0" d="M133.3,200v433.3c0,55.2,44.8,100,100,100h333.3c55.2,0,100-44.8,100-100V300c0-55.2-44.8-100-100-100H133.3z
	 M133.3,200v-33.3"/>
<path class="st1" d="M600,200v25h25v-25H600z M523.9,77.5l-3.5-24.7L523.9,77.5z M164,129l-3.5-24.7l0,0L164,129z M169,225h431v-50
	H169V225z M625,200v-56.5h-50V200H625z M520.4,52.8l-359.9,51.4l7.1,49.5l359.9-51.4L520.4,52.8z M160.5,104.2
	c-29.9,4.3-52.1,29.9-52.1,60.1h50c0-5.3,3.9-9.8,9.2-10.6L160.5,104.2z M625,143.5c0-55.8-49.4-98.6-104.6-90.7l7.1,49.5
	c25.1-3.6,47.6,15.9,47.6,41.2H625z M169,175c-5.9,0-10.7-4.8-10.7-10.7h-50c0,33.5,27.2,60.7,60.7,60.7V175z"/>
<path class="st2" d="M266.7,400h266.7"/>
<path class="st2" d="M266.7,516.7H450"/>
</svg>
