<?xml version="1.0" encoding="utf-8"?>
<!-- Generator: Adobe Illustrator 28.2.0, SVG Export Plug-In . SVG Version: 6.00 Build 0)  -->
<svg version="1.1" id="Layer_1" xmlns="http://www.w3.org/2000/svg" xmlns:xlink="http://www.w3.org/1999/xlink" x="0px" y="0px"
	 viewBox="0 0 800 800" style="enable-background:new 0 0 800 800;" xml:space="preserve">
<style type="text/css">
	.st0{fill:none;stroke:#0853BF;stroke-width:50;stroke-miterlimit:133.3333;}
	
		.st1{opacity:0.5;fill:none;stroke:#0853BF;stroke-width:50;stroke-linecap:round;stroke-miterlimit:133.3333;enable-background:new    ;}
	.st2{opacity:0.5;fill:#0853BF;enable-background:new    ;}
</style>
<path class="st0" d="M326,129.7c18.8-16,28.2-24,38-28.7c22.7-10.9,49.1-10.9,71.9,0c9.8,4.7,19.2,12.7,38,28.7
	c7.5,6.4,11.2,9.6,15.2,12.2c9.2,6.1,19.4,10.4,30.3,12.5c4.7,0.9,9.6,1.3,19.4,2.1c24.6,2,36.9,2.9,47.2,6.6
	c23.7,8.4,42.4,27.1,50.8,50.8c3.6,10.3,4.6,22.6,6.6,47.2c0.8,9.8,1.2,14.7,2.1,19.4c2.1,10.8,6.4,21.1,12.5,30.3
	c2.7,4,5.9,7.7,12.2,15.2c16,18.8,24,28.2,28.7,38c10.9,22.7,10.9,49.1,0,71.9c-4.7,9.8-12.7,19.2-28.7,38
	c-6.4,7.5-9.6,11.2-12.2,15.2c-6.1,9.2-10.4,19.4-12.5,30.3c-0.9,4.7-1.3,9.6-2.1,19.4c-2,24.6-2.9,36.9-6.6,47.2
	c-8.4,23.7-27.1,42.4-50.8,50.8c-10.3,3.6-22.6,4.6-47.2,6.6c-9.8,0.8-14.7,1.2-19.4,2.1c-10.8,2.1-21.1,6.4-30.3,12.5
	c-4,2.7-7.7,5.9-15.2,12.2c-18.8,16-28.2,24-38,28.7c-22.7,10.9-49.1,10.9-71.9,0c-9.8-4.7-19.2-12.7-38-28.7
	c-7.5-6.4-11.2-9.6-15.2-12.2c-9.2-6.1-19.4-10.4-30.3-12.5c-4.7-0.9-9.6-1.3-19.4-2.1c-24.6-2-36.9-2.9-47.2-6.6
	c-23.8-8.4-42.4-27.1-50.8-50.8c-3.6-10.3-4.6-22.6-6.6-47.2c-0.8-9.8-1.2-14.7-2.1-19.4c-2.1-10.8-6.4-21.1-12.5-30.3
	c-2.7-4-5.9-7.7-12.2-15.2c-16-18.8-24-28.2-28.7-38c-10.9-22.7-10.9-49.1,0-71.9c4.7-9.8,12.7-19.2,28.7-38
	c6.4-7.5,9.6-11.2,12.2-15.2c6.1-9.2,10.4-19.4,12.5-30.3c0.9-4.7,1.3-9.6,2.1-19.4c2-24.6,2.9-36.9,6.6-47.2
	c8.4-23.8,27.1-42.4,50.8-50.8c10.3-3.6,22.6-4.6,47.2-6.6c9.8-0.8,14.7-1.2,19.4-2.1c10.8-2.1,21.1-6.4,30.3-12.5
	C314.8,139.2,318.6,136.1,326,129.7z"/>
<path class="st1" d="M300,500l200-200"/>
<path class="st2" d="M516.7,483.3c0,18.4-14.9,33.3-33.3,33.3S450,501.7,450,483.3s14.9-33.3,33.3-33.3S516.7,464.9,516.7,483.3z"/>
<path class="st2" d="M350,316.7c0,18.4-14.9,33.3-33.3,33.3s-33.3-14.9-33.3-33.3s14.9-33.3,33.3-33.3
	C335.1,283.3,350,298.3,350,316.7z"/>
</svg>
