<?xml version="1.0" encoding="utf-8"?>
<!-- Generator: Adobe Illustrator 28.2.0, SVG Export Plug-In . SVG Version: 6.00 Build 0)  -->
<svg version="1.1" id="Layer_1" xmlns="http://www.w3.org/2000/svg" xmlns:xlink="http://www.w3.org/1999/xlink" x="0px" y="0px"
	 viewBox="0 0 800 800" style="enable-background:new 0 0 800 800;" xml:space="preserve">
<style type="text/css">
	.st0{opacity:0.5;fill:#2251A4;enable-background:new    ;}
	.st1{fill:#0853BF;}
</style>
<path class="st0" d="M758.5,272.4C746.1,171.9,659.6,92.5,557.6,90c-60.5-1.5-112.2,19.8-156.2,62.5c-0.4,0.4-0.8,0.8-1.2,1.2l0,0
	l-40.5,36.7c-20.3,21.2-39.6,41.3-58.8,61.4c-33.4,35-35.1,88.1-4,124.3c33.7,39.2,93.2,43.3,131.2,8.3
	c19.7-18.1,38.2-37.7,57.2-56.6c27.4-27.3,59.1-27.2,86.6,0.1c14.9,14.8,29.7,29.6,44.5,44.5l0,0l0.6,0.6l0.6,0.6
	c3.7,3.7,7.4,7.5,11.2,11.2c0.8,0.8,1.5,1.6,2.3,2.4l63.5,64.5c5.5-6.1,10.8-12.4,16-18.8C748.5,386.3,766,333.3,758.5,272.4z
	 M692,370.5c-1.6,2.9-3.3,5.8-4.2,7.3c-11.7-13.4-22.5-26.6-34.1-38.8c-15.7-16.5-32-32.5-48.2-48.4
	c-45.5-44.6-109.2-44.5-154.3,0.2c-17.6,17.4-35,35.1-52.6,52.6c-18.7,18.6-44.7,19.3-61.7,2.1c-17-17.3-15.9-43.1,3-61.7
	c33.6-33.2,67.3-66.4,101.1-99.3c55.5-54.1,143.9-59.1,206.3-11.9C708.6,219.1,727.9,304.2,692,370.5z"/>
<path class="st1" d="M692.2,454.1c-8.6,9.5-17.5,18.9-26.5,28c-18.4,18.8-41.6,27.4-68.9,28.1c0.1,28.7-8,54.2-28.6,74.7
	c-20.3,20.2-45.1,29.3-74,28.1c-1.4,9-2,17.3-3.9,25.3c-16.6,68.9-101.7,95.6-152.6,47c-68.9-65.7-137-132.2-204.7-199.1
	C101.4,455,74,420.3,56.2,379C4,257.5,81.8,114.8,212.1,93.4c70.6-11.6,131.8,7.7,183.8,56.6c0.4,0.4,0.8,0.8,1.3,1.2l-36.5,34
	c-1.2-0.9-2.6-1.9-4-3.1c-36.1-31.8-78-45.7-126-40.5C129.8,152.3,64.6,257,99.7,352.1c14.3,38.7,39.7,69.8,68.4,98.2
	c67,66.2,134.8,131.6,202.4,197.2c12.7,12.4,28.2,15.5,44.6,9.1c16.8-6.5,25.7-19.7,27.5-37.6c1.4-14.6-3.9-26.7-13.7-37.5
	c-8.2-9-8.9-20.1-3.1-29.7c5.5-9.2,16.2-14.5,26.7-11.4c5.8,1.7,11.1,5.9,15.8,9.9c14.6,12.5,30.9,16,48.6,9.2
	c17.9-6.9,27.6-21,29-40c1.1-14.9-5.1-27.1-15.6-37.7c-8.9-8.9-10-20.4-4.1-30.4c5.4-9.3,16.1-14.7,26.6-11.7
	c5.8,1.7,11.2,5.7,16.1,9.5c19.4,15.2,46.5,13.5,62.9-4.2c12.2-13.2,14.5-30.3,7.1-45.8L692.2,454.1z"/>
</svg>
