<?xml version="1.0" encoding="utf-8"?>
<!-- Generator: Adobe Illustrator 28.2.0, SVG Export Plug-In . SVG Version: 6.00 Build 0)  -->
<svg version="1.1" id="Layer_1" xmlns="http://www.w3.org/2000/svg" xmlns:xlink="http://www.w3.org/1999/xlink" x="0px" y="0px"
	 viewBox="0 0 800 800" style="enable-background:new 0 0 800 800;" xml:space="preserve">
<style type="text/css">
	.st0{fill:none;stroke:#0853BF;stroke-width:50;stroke-linecap:round;stroke-linejoin:round;stroke-miterlimit:133.3333;}
	
		.st1{opacity:0.5;fill:none;stroke:#0853BF;stroke-width:50;stroke-linecap:round;stroke-linejoin:round;stroke-miterlimit:133.3333;enable-background:new    ;}
</style>
<path class="st0" d="M733.3,733.3H66.7"/>
<path class="st0" d="M66.7,366.7L337.5,150c36.5-29.2,88.4-29.2,124.9,0l270.9,216.7"/>
<path class="st1" d="M516.7,183.3v-66.7c0-9.2,7.5-16.7,16.7-16.7h83.3c9.2,0,16.7,7.5,16.7,16.7v166.7"/>
<path class="st0" d="M133.3,733.3V316.7"/>
<path class="st0" d="M666.7,733.3V316.7"/>
<path class="st1" d="M500,733.3V566.7c0-47.1,0-70.7-14.6-85.4c-14.6-14.6-38.2-14.6-85.4-14.6s-70.7,0-85.4,14.6
	C300,496,300,519.5,300,566.7v166.7"/>
<path class="st1" d="M466.7,316.7c0,36.8-29.8,66.7-66.7,66.7s-66.7-29.8-66.7-66.7c0-36.8,29.8-66.7,66.7-66.7
	S466.7,279.8,466.7,316.7z"/>
</svg>
