<?xml version="1.0" encoding="utf-8"?>
<!-- Generator: Adobe Illustrator 28.2.0, SVG Export Plug-In . SVG Version: 6.00 Build 0)  -->
<svg version="1.1" id="Layer_1" xmlns="http://www.w3.org/2000/svg" xmlns:xlink="http://www.w3.org/1999/xlink" x="0px" y="0px"
	 viewBox="0 0 800 800" style="enable-background:new 0 0 800 800;" xml:space="preserve">
<style type="text/css">
	
		.st0{opacity:0.5;fill:none;stroke:#0853BF;stroke-width:50;stroke-linecap:round;stroke-linejoin:round;stroke-miterlimit:133.3333;enable-background:new    ;}
	.st1{fill:none;stroke:#0853BF;stroke-width:50;stroke-linecap:round;stroke-linejoin:round;stroke-miterlimit:133.3333;}
</style>
<circle class="st0" cx="399.2" cy="172.6" r="93.8"/>
<g>
	<line class="st1" x1="627.1" y1="180.8" x2="495" y2="180.8"/>
	<line class="st1" x1="301.9" y1="180.8" x2="172.9" y2="180.8"/>
</g>
<path class="st1" d="M573.3,445.9v152.3c0,20.5-16.6,37.1-37.1,37.1h-94.1V585c0-25.3-20.5-45.8-45.8-45.8
	c-12.7,0-24.1,5.1-32.4,13.4c-8.3,8.3-13.4,19.8-13.4,32.4v50.3h-88.2c-20.5,0-37.1-16.6-37.1-37.1V445.9
	c0-96.2,78-174.1,174.1-174.1S573.3,349.7,573.3,445.9z"/>
<path class="st0" d="M442.1,585.8v88.9c0,25.7-20.5,46.6-45.8,46.6s-45.8-20.8-45.8-46.6v-88.9c0-12.9,5.1-24.5,13.4-32.9
	s19.8-13.6,32.4-13.6C421.6,539.2,442.1,560,442.1,585.8z"/>
</svg>
