<?xml version="1.0" encoding="utf-8"?>
<!-- Generator: Adobe Illustrator 28.2.0, SVG Export Plug-In . SVG Version: 6.00 Build 0)  -->
<svg version="1.1" id="Layer_1" xmlns="http://www.w3.org/2000/svg" xmlns:xlink="http://www.w3.org/1999/xlink" x="0px" y="0px"
	 viewBox="0 0 800 800" style="enable-background:new 0 0 800 800;" xml:space="preserve">
<style type="text/css">
	.st0{fill:none;stroke:#0853BF;stroke-width:50;stroke-miterlimit:133.3333;}
	
		.st1{opacity:0.5;fill:none;stroke:#0853BF;stroke-width:50;stroke-linecap:round;stroke-miterlimit:133.3333;enable-background:new    ;}
</style>
<path class="st0" d="M536.7,445.3l15.2-15.1c21-20.9,53.7-25.2,80.6-10.6l63.7,34.6C737,476.5,746,531,714.1,562.8l-47.4,47.1
	c-12,12-27,20.7-44.2,22.3 M133.4,191.5c-1.2-20.7,8.5-39.3,23-53.7l52.3-52c29.2-29,78.3-24.5,103.7,9.5l42,56.1
	c20.5,27.4,18.3,65-5.2,88.5l-9.6,9.5"/>
<path class="st1" d="M622.5,632.2c-54.3,5.1-187.1-0.5-328.7-141.3C160.4,358.2,136.4,244.4,133.4,191.5"/>
<path class="st1" d="M536.7,445.3c0,0-36.1,35.9-134.6-62.1c-98.5-97.9-62.4-133.8-62.4-133.8"/>
</svg>
