<?xml version="1.0" encoding="utf-8"?>
<!-- Generator: Adobe Illustrator 28.2.0, SVG Export Plug-In . SVG Version: 6.00 Build 0)  -->
<svg version="1.1" id="Layer_1" xmlns="http://www.w3.org/2000/svg" xmlns:xlink="http://www.w3.org/1999/xlink" x="0px" y="0px"
	 viewBox="0 0 800 800" style="enable-background:new 0 0 800 800;" xml:space="preserve">
<style type="text/css">
	
		.st0{opacity:0.5;fill:none;stroke:#F36942;stroke-width:50;stroke-linecap:round;stroke-linejoin:round;stroke-miterlimit:133.3333;}
	.st1{fill:none;stroke:#F36942;stroke-width:50;stroke-linecap:round;stroke-linejoin:round;stroke-miterlimit:133.3333;}
</style>
<path class="st0" d="M400,500h33.3c36.7,0,66.7-30,66.7-66.7V100H200c-50,0-93.7,27.7-116.3,68.3"/>
<path class="st1" d="M66.7,600c0,55.3,44.7,100,100,100H200c0-36.7,30-66.7,66.7-66.7s66.7,30,66.7,66.7h133.3
	c0-36.7,30-66.7,66.7-66.7s66.7,30,66.7,66.7h33.3c55.3,0,100-44.7,100-100V500h-100c-18.3,0-33.3-15-33.3-33.3v-100
	c0-18.3,15-33.3,33.3-33.3h43l-57-99.7c-12-20.7-34-33.7-58-33.7H500v233.3c0,36.7-30,66.7-66.7,66.7H400"/>
<path class="st1" d="M733.3,433.3V500h-100c-18.3,0-33.3-15-33.3-33.3v-100c0-18.3,15-33.3,33.3-33.3h43L733.3,433.3z"/>
<path class="st1" d="M66.7,300h200"/>
<path class="st1" d="M66.7,400H200"/>
<path class="st1" d="M66.7,500h66.7"/>
</svg>
