<svg width="124" height="22" viewBox="0 0 124 22" fill="none" xmlns="http://www.w3.org/2000/svg">
<path d="M9.24367 9.56221C7.54832 9.56221 5.95745 8.90211 4.75836 7.70302L1.33681 4.28384L3.2601 2.35818L6.68165 5.77973C7.33225 6.4327 8.2654 6.80786 9.24129 6.80786C10.2172 6.80786 11.1527 6.4327 11.8081 5.77973L15.2296 2.35818L17.1529 4.28147L13.7313 7.70302C12.5323 8.90211 10.939 9.55983 9.24367 9.55983V9.56221ZM9.24604 5.44731C8.02083 5.44731 7.02357 4.45005 7.02357 3.22484C7.02357 1.99964 8.01846 1 9.24604 1C10.4736 1 11.4685 1.99726 11.4685 3.22247C11.4685 4.44768 10.4712 5.44494 9.24604 5.44494V5.44731ZM13.7313 12.7843L17.1529 16.2059L15.2296 18.1292L11.8081 14.7076C11.1527 14.0546 10.2172 13.6795 9.24129 13.6795C8.2654 13.6795 7.33225 14.0546 6.68165 14.7076L3.2601 18.1292L1.33681 16.2059L4.75836 12.7843C5.95745 11.5852 7.5507 10.9251 9.24367 10.9251C10.9366 10.9251 12.5323 11.5852 13.7313 12.7819V12.7843ZM11.4685 17.2672C11.4685 18.4924 10.4712 19.4897 9.24604 19.4897C8.02083 19.4897 7.02357 18.4924 7.02357 17.2672C7.02357 16.042 8.02083 15.0448 9.24604 15.0448C10.4712 15.0448 11.4685 16.042 11.4685 17.2672ZM4.44731 10.246C4.44731 11.4712 3.45005 12.4685 2.22484 12.4685C0.999636 12.4685 0 11.4712 0 10.246C0 9.02083 0.997262 8.02357 2.22247 8.02357C3.44768 8.02357 4.44494 9.02083 4.44494 10.246H4.44731ZM16.2672 8.0212C17.4924 8.0212 18.4897 9.01846 18.4897 10.2437C18.4897 11.4689 17.4924 12.4661 16.2672 12.4661C15.042 12.4661 14.0448 11.4689 14.0448 10.2437C14.0448 9.01846 15.042 8.0212 16.2672 8.0212Z" fill="#EB6424"/>
<path d="M29.9719 3.2245H24.354V17.236H27.1131V12.5157H29.9529C32.8141 12.5157 34.6638 10.6873 34.6638 7.85939C34.6638 5.03144 32.8663 3.22212 29.9719 3.22212V3.2245ZM31.7717 7.80478C31.7717 9.23894 30.9146 10.0961 29.4804 10.0961H27.1131V5.68204H29.4994C30.9003 5.68204 31.7717 6.49409 31.7717 7.80478ZM39.7118 7.43437C36.7699 7.43437 34.716 9.49538 34.716 12.4492C34.716 15.403 36.7699 17.464 39.7118 17.464C42.6538 17.464 44.6886 15.403 44.6886 12.4492C44.6886 9.49538 42.6419 7.43437 39.7118 7.43437ZM39.7118 15.08C38.318 15.08 37.3825 14.0234 37.3825 12.4492C37.3825 10.8749 38.318 9.8183 39.7118 9.8183C41.1056 9.8183 42.0412 10.901 42.0412 12.4492C42.0412 13.9973 41.0843 15.08 39.7118 15.08ZM45.8616 2.96094H48.5091V17.236H45.8616V2.96094ZM53.0989 4.59692C53.0989 5.48259 52.4056 6.17592 51.5199 6.17592C50.6342 6.17592 49.9409 5.48259 49.9409 4.59692C49.9409 3.71126 50.6342 3.03692 51.5199 3.03692C52.4056 3.03692 53.0989 3.72076 53.0989 4.59692ZM50.2068 7.69793H52.8543V17.236H50.2068V7.69793ZM61.1625 13.5628L63.4015 14.3962L63.3754 14.4769C62.7676 16.3029 61.0152 17.4806 58.9139 17.4806C55.9814 17.4806 54.013 15.4647 54.013 12.4658C54.013 9.46688 55.9909 7.413 58.9329 7.413C61.0865 7.413 62.8293 8.58597 63.3778 10.4L63.4015 10.476L61.1268 11.3902L61.0984 11.3023C60.8039 10.3977 59.9681 9.81355 58.9732 9.81355C57.5486 9.81355 56.6629 10.8298 56.6629 12.4634C56.6629 14.097 57.5486 15.0753 58.9732 15.0753C59.98 15.0753 60.83 14.5126 61.1363 13.6411L61.1648 13.558L61.1625 13.5628ZM79.7471 16.0417H76.3493C75.77 16.0417 75.4352 15.7924 75.4352 15.3555C75.4352 14.9186 75.7628 14.655 76.3327 14.6503C76.9073 14.8663 77.4938 14.9708 78.123 14.9708C80.4975 14.9708 82.1548 13.4678 82.1548 11.3166C82.1548 10.3597 81.8628 9.56898 81.2644 8.90414C81.5565 8.63821 81.9103 8.51474 82.3685 8.51474C82.4825 8.51474 82.5988 8.51474 82.644 8.52898L82.7579 8.56697V7.02359L82.3875 6.99985C81.452 6.99985 80.6755 7.40113 80.241 8.10396C79.6071 7.78341 78.8947 7.62195 78.123 7.62195C75.7272 7.62195 74.0533 9.13921 74.0533 11.3142C74.0533 12.3281 74.4142 13.19 75.1241 13.881C74.2551 14.192 73.9393 14.9779 73.9393 15.638C73.9393 16.2459 74.2313 16.7778 74.749 17.1197C73.9796 17.5138 73.5238 18.2452 73.5238 19.1118C73.5238 20.0355 73.9678 20.6908 74.8416 21.0612C75.713 21.4293 76.791 21.6145 78.0471 21.6145C79.4575 21.6145 80.6328 21.3889 81.5398 20.9449C82.4493 20.5009 82.9099 19.7506 82.9099 18.7153C82.9099 17.0674 81.6966 16.0417 79.7471 16.0417ZM78.1064 9.06323C79.5002 9.06323 80.4737 9.99876 80.4737 11.3356C80.4737 12.6724 79.5145 13.5319 78.0874 13.5319C76.6604 13.5319 75.7391 12.6273 75.7391 11.3356C75.7391 10.0439 76.7126 9.06323 78.1064 9.06323ZM78.1064 20.121C75.9433 20.121 75.06 19.7244 75.06 18.7533C75.06 18.1122 75.4637 17.6492 76.1238 17.5186H79.5596C80.6067 17.5186 81.2098 17.9626 81.2098 18.7343C81.2098 19.7316 80.3408 20.1186 78.1064 20.1186V20.121ZM87.806 7.62432C85.0659 7.62432 83.2257 9.61647 83.2257 12.5821C83.2257 15.5478 85.0445 17.464 87.749 17.464C89.6628 17.464 91.1895 16.5237 91.9422 14.883L91.9802 14.8022L90.5176 14.1873L90.482 14.2632C89.9667 15.3507 89.0098 15.9491 87.7846 15.9491C86.1534 15.9491 85.0872 14.9708 84.9163 13.3301H92.3269V12.5441C92.3269 9.60223 90.5081 7.62432 87.8036 7.62432H87.806ZM87.7894 9.11784C89.4467 9.11784 90.4487 10.1673 90.5484 12.0028H84.921C85.0944 10.1935 86.1605 9.11784 87.7894 9.11784ZM102.029 11.5231V17.236H100.307V11.7511C100.307 10.8132 100.089 10.1745 99.6401 9.79693C99.1724 9.40515 98.6405 9.21282 98.016 9.21282C96.4394 9.21282 95.4232 10.2908 95.4232 11.9577V17.217H93.7017V7.86889H95.3258L95.3733 8.91602C95.9835 8.10158 97.0639 7.62195 98.32 7.62195C100.678 7.62195 102.031 9.04424 102.031 11.5208L102.029 11.5231ZM103.954 7.86889H105.695V17.236H103.954V7.86889ZM106.072 4.65153C106.072 5.35674 105.531 5.89099 104.814 5.89099C104.097 5.89099 103.575 5.35911 103.575 4.65153C103.575 3.94395 104.106 3.39308 104.814 3.39308C105.522 3.39308 106.072 3.94633 106.072 4.65153ZM115.817 17.1316L115.841 17.236H114.112L114.098 17.1648C114.032 16.8205 113.986 16.4786 113.963 16.1438C113.379 16.9843 112.336 17.4616 111.052 17.4616C110.028 17.4616 109.14 17.1505 108.409 16.5356C107.675 15.8968 107.302 14.8782 107.302 13.5058V7.86889H109.043V13.2802C109.043 14.9518 109.886 15.9111 111.353 15.9111C112.821 15.9111 113.908 14.807 113.908 13.1663V7.86889H115.649V15.4695C115.649 15.9752 115.72 16.6899 115.817 17.1316ZM123.999 14.6574C123.999 16.3884 122.644 17.4616 120.459 17.4616C118.496 17.4616 117.14 16.5142 116.919 14.9898L116.907 14.9067L118.474 14.6099L118.488 14.6978C118.617 15.5027 119.365 16.0037 120.44 16.0037C120.993 16.0037 122.278 15.8731 122.278 14.655C122.278 14.04 121.879 13.6364 121.06 13.4179L119.664 13.0404C117.992 12.5988 117.144 11.706 117.144 10.3882C117.144 8.7593 118.5 7.61957 120.44 7.61957C122.278 7.61957 123.601 8.5456 123.812 9.97739L123.824 10.0557L122.273 10.4167L122.261 10.3193C122.176 9.57373 121.475 9.0941 120.478 9.0941C119.481 9.0941 118.828 9.59985 118.828 10.3858C118.828 11.0079 119.234 11.3949 120.141 11.6419L121.518 12.0194C123.116 12.4231 123.999 13.3586 123.999 14.6526V14.6574ZM73.6425 7.70268L73.6164 7.78104L69.8101 18.6892C69.3851 19.7957 68.8556 20.603 68.2383 21.0945C67.6185 21.586 66.6901 21.8353 65.4863 21.8353H64.2017V19.4561H65.2963C65.8852 19.4561 66.3102 19.354 66.5595 19.1522C66.8089 18.9504 67.0867 18.447 67.3906 17.6539L63.6058 7.70031H66.4812L66.4954 7.74067L68.763 14.5244L70.9 7.70031H73.6472L73.6425 7.70268Z" fill="#131212"/>
</svg>
