<?xml version="1.0" encoding="UTF-8"?>
<svg id="Layer_2" data-name="Layer 2" xmlns="http://www.w3.org/2000/svg" xmlns:xlink="http://www.w3.org/1999/xlink" viewBox="0 0 606.27 181.4">
  <defs>
    <style>
      .cls-1 {
        fill: url(#linear-gradient);
      }

      .cls-1, .cls-2, .cls-3, .cls-4 {
        stroke-width: 0px;
      }

      .cls-3 {
        fill: #fff;
      }

      .cls-4 {
        fill: #f2693d;
      }
    </style>
    <linearGradient id="linear-gradient" x1="0" y1="90.7" x2="181.4" y2="90.7" gradientUnits="userSpaceOnUse">
      <stop offset="0" stop-color="#136eb7"/>
      <stop offset="1" stop-color="#2e3995"/>
    </linearGradient>
  </defs>
  <g id="Layer_1-2" data-name="Layer 1">
    <g>
      <g>
        <g>
          <path class="cls-2" d="M212.03,47.6V.08h11.06l26.2,31.63h-5.23V.08h13.17v47.52h-11.06l-26.2-31.63h5.23v31.63h-13.17Z"/>
          <path class="cls-2" d="M266.74,47.6V.08h37.27v10.39h-23.96v26.74h24.84v10.39h-38.15ZM279.09,28.52v-10.05h22.06v10.05h-22.06Z"/>
          <path class="cls-2" d="M323.42,47.6L308.01.08h13.85l12.96,41.13h-6.99L341.47.08h12.35l12.9,41.13h-6.72L373.38.08h12.83l-15.41,47.52h-14.39l-11-34.96h3.87l-11.47,34.96h-14.39Z"/>
        </g>
        <g>
          <path class="cls-2" d="M227.44,113.98l-15.41-47.52h13.85l12.96,41.13h-6.99l13.64-41.13h12.35l12.9,41.13h-6.72l13.37-41.13h12.83l-15.41,47.52h-14.39l-11-34.96h3.87l-11.47,34.96h-14.39Z"/>
          <path class="cls-2" d="M318.39,114.93c-3.8,0-7.31-.61-10.52-1.83s-6.01-2.95-8.38-5.19-4.22-4.85-5.53-7.84c-1.31-2.99-1.97-6.27-1.97-9.84s.66-6.86,1.97-9.84c1.31-2.99,3.16-5.6,5.53-7.84,2.38-2.24,5.17-3.97,8.38-5.19s6.72-1.83,10.52-1.83,7.37.61,10.56,1.83,5.96,2.95,8.32,5.19c2.35,2.24,4.2,4.85,5.53,7.84,1.33,2.99,2,6.27,2,9.84s-.67,6.87-2,9.88c-1.34,3.01-3.18,5.62-5.53,7.84-2.35,2.22-5.12,3.94-8.32,5.16s-6.71,1.83-10.56,1.83ZM318.39,103.8c1.81,0,3.5-.32,5.06-.95,1.56-.63,2.92-1.55,4.07-2.75,1.15-1.2,2.06-2.64,2.71-4.31.66-1.67.98-3.53.98-5.57s-.33-3.95-.98-5.6c-.66-1.65-1.56-3.08-2.71-4.28-1.15-1.2-2.51-2.11-4.07-2.75-1.56-.63-3.25-.95-5.06-.95s-3.5.32-5.06.95c-1.56.63-2.92,1.55-4.07,2.75-1.15,1.2-2.06,2.62-2.71,4.28-.66,1.65-.98,3.52-.98,5.6s.33,3.89.98,5.57c.66,1.67,1.56,3.11,2.71,4.31,1.15,1.2,2.51,2.12,4.07,2.75,1.56.63,3.25.95,5.06.95Z"/>
          <path class="cls-2" d="M351.86,113.98v-47.52h21.25c6.92,0,12.25,1.57,15.99,4.72s5.6,7.43,5.6,12.86c0,3.58-.86,6.66-2.58,9.27-1.72,2.6-4.15,4.59-7.3,5.97-3.15,1.38-6.89,2.07-11.23,2.07h-14.25l5.97-5.63v18.26h-13.44ZM365.3,97.15l-5.97-6.18h13.44c2.81,0,4.9-.61,6.28-1.83,1.38-1.22,2.07-2.92,2.07-5.09s-.69-3.94-2.07-5.16c-1.38-1.22-3.47-1.83-6.28-1.83h-13.44l5.97-6.18v26.27ZM381.25,113.98l-11.81-17.31h14.32l11.88,17.31h-14.39Z"/>
          <path class="cls-2" d="M402.09,113.98v-47.52h13.44v36.86h22.67v10.66h-36.11Z"/>
          <path class="cls-2" d="M443.5,113.98v-47.52h22.47c5.25,0,9.87.97,13.85,2.92,3.98,1.95,7.09,4.68,9.33,8.21,2.24,3.53,3.36,7.74,3.36,12.63s-1.12,9.04-3.36,12.59-5.35,6.3-9.33,8.25c-3.98,1.95-8.6,2.92-13.85,2.92h-22.47ZM456.94,103.26h8.49c2.71,0,5.08-.51,7.09-1.53,2.01-1.02,3.59-2.51,4.72-4.48s1.7-4.31,1.7-7.03-.57-5.11-1.7-7.06c-1.13-1.95-2.7-3.43-4.72-4.45-2.01-1.02-4.38-1.53-7.09-1.53h-8.49v26.07Z"/>
        </g>
        <g>
          <path class="cls-2" d="M238.16,181.31c-3.76,0-7.23-.6-10.42-1.8-3.19-1.2-5.95-2.91-8.28-5.12-2.33-2.22-4.15-4.83-5.46-7.84-1.31-3.01-1.97-6.32-1.97-9.94s.66-6.93,1.97-9.94c1.31-3.01,3.13-5.62,5.46-7.84,2.33-2.22,5.09-3.93,8.28-5.12,3.19-1.2,6.66-1.8,10.42-1.8,4.39,0,8.32.77,11.78,2.31,3.46,1.54,6.35,3.76,8.65,6.65l-8.55,7.74c-1.54-1.81-3.22-3.19-5.06-4.14s-3.88-1.43-6.14-1.43c-1.95,0-3.73.32-5.36.95s-3.02,1.55-4.17,2.75c-1.15,1.2-2.06,2.64-2.71,4.31-.66,1.67-.98,3.53-.98,5.57s.33,3.89.98,5.57c.66,1.67,1.56,3.11,2.71,4.31,1.15,1.2,2.55,2.12,4.17,2.75s3.42.95,5.36.95c2.26,0,4.31-.48,6.14-1.43s3.52-2.33,5.06-4.14l8.55,7.74c-2.31,2.85-5.19,5.06-8.65,6.62-3.46,1.56-7.39,2.34-11.78,2.34Z"/>
          <path class="cls-2" d="M286.08,181.31c-3.8,0-7.31-.61-10.52-1.83-3.21-1.22-6.01-2.95-8.38-5.19s-4.22-4.85-5.53-7.84c-1.31-2.99-1.97-6.27-1.97-9.84s.66-6.86,1.97-9.84c1.31-2.99,3.16-5.6,5.53-7.84s5.17-3.97,8.38-5.19,6.72-1.83,10.52-1.83,7.37.61,10.56,1.83,5.96,2.95,8.32,5.19c2.35,2.24,4.2,4.85,5.53,7.84,1.33,2.99,2,6.27,2,9.84s-.67,6.87-2,9.88c-1.34,3.01-3.18,5.62-5.53,7.84-2.35,2.22-5.12,3.94-8.32,5.16-3.19,1.22-6.71,1.83-10.56,1.83ZM286.08,170.18c1.81,0,3.5-.32,5.06-.95,1.56-.63,2.92-1.55,4.07-2.75s2.06-2.64,2.71-4.31c.66-1.67.98-3.53.98-5.57s-.33-3.95-.98-5.6c-.66-1.65-1.56-3.08-2.71-4.28s-2.51-2.12-4.07-2.75c-1.56-.63-3.25-.95-5.06-.95s-3.5.32-5.06.95c-1.56.63-2.92,1.55-4.07,2.75-1.15,1.2-2.06,2.62-2.71,4.28-.66,1.65-.98,3.52-.98,5.6s.33,3.89.98,5.57c.66,1.67,1.56,3.11,2.71,4.31,1.15,1.2,2.51,2.12,4.07,2.75,1.56.63,3.25.95,5.06.95Z"/>
          <path class="cls-2" d="M341.47,181.31c-7.01,0-12.49-1.92-16.43-5.77-3.94-3.85-5.91-9.3-5.91-16.36v-26.34h13.44v25.93c0,4.07.8,6.99,2.41,8.76,1.61,1.76,3.81,2.65,6.62,2.65s5-.88,6.58-2.65,2.38-4.68,2.38-8.76v-25.93h13.24v26.34c0,7.06-1.97,12.51-5.91,16.36-3.94,3.85-9.41,5.77-16.43,5.77Z"/>
          <path class="cls-2" d="M372.9,180.36v-47.52h21.25c6.92,0,12.25,1.57,15.99,4.72,3.73,3.15,5.6,7.43,5.6,12.86,0,3.58-.86,6.66-2.58,9.27-1.72,2.6-4.15,4.59-7.3,5.97-3.15,1.38-6.89,2.07-11.23,2.07h-14.25l5.97-5.63v18.26h-13.44ZM386.34,163.53l-5.97-6.18h13.44c2.81,0,4.9-.61,6.28-1.83,1.38-1.22,2.07-2.92,2.07-5.09s-.69-3.94-2.07-5.16c-1.38-1.22-3.47-1.83-6.28-1.83h-13.44l5.97-6.18v26.27ZM402.29,180.36l-11.81-17.31h14.32l11.88,17.31h-14.39Z"/>
          <path class="cls-2" d="M432.57,180.36v-36.86h-14.59v-10.66h42.56v10.66h-14.53v36.86h-13.44Z"/>
          <path class="cls-2" d="M457.48,180.36l20.97-47.52h13.24l21.04,47.52h-13.98l-16.43-40.93h5.29l-16.43,40.93h-13.71ZM468.95,171.13l3.46-9.91h23.21l3.46,9.91h-30.14Z"/>
          <path class="cls-2" d="M539.61,181.31c-3.76,0-7.24-.6-10.45-1.8-3.21-1.2-5.98-2.91-8.31-5.12-2.33-2.22-4.15-4.83-5.46-7.84-1.31-3.01-1.97-6.32-1.97-9.94s.66-6.93,1.97-9.94c1.31-3.01,3.14-5.62,5.5-7.84,2.35-2.22,5.15-3.93,8.38-5.12,3.23-1.2,6.78-1.8,10.62-1.8,4.48,0,8.48.75,12.01,2.24,3.53,1.49,6.45,3.64,8.76,6.45l-8.55,7.74c-1.63-1.76-3.38-3.09-5.26-3.97-1.88-.88-3.97-1.32-6.28-1.32-2.04,0-3.89.32-5.57.95-1.67.63-3.1,1.55-4.28,2.75-1.18,1.2-2.09,2.62-2.75,4.28-.66,1.65-.98,3.52-.98,5.6s.33,3.83.98,5.5c.66,1.67,1.57,3.11,2.75,4.31,1.18,1.2,2.59,2.13,4.24,2.78,1.65.66,3.47.98,5.46.98s3.94-.33,5.84-.98c1.9-.66,3.82-1.78,5.77-3.36l7.53,9.44c-2.71,1.95-5.86,3.44-9.43,4.48-3.58,1.04-7.08,1.56-10.52,1.56ZM559.57,175.27l-11.88-1.76v-17.92h11.88v19.68Z"/>
          <path class="cls-2" d="M568.12,180.36v-47.52h37.27v10.39h-23.96v26.74h24.84v10.39h-38.15ZM580.48,161.29v-10.05h22.06v10.05h-22.06Z"/>
        </g>
      </g>
      <g>
        <circle class="cls-3" cx="92.66" cy="90.22" r="69.3"/>
        <polygon class="cls-4" points="40.37 42.19 60.21 21.39 112.4 18.17 138.94 37.73 134.64 56.8 98.48 88.87 75.71 88.87 40.37 56.33 40.37 42.19"/>
        <path class="cls-1" d="M90.7,0C40.69,0,0,40.69,0,90.7s40.69,90.7,90.7,90.7,90.7-40.69,90.7-90.7S140.71,0,90.7,0ZM125.28,40.86l-34.58,34.58-34.58-34.58c9.82-6.83,21.74-10.86,34.58-10.86s24.76,4.02,34.59,10.86ZM90.7,151.4c-33.47,0-60.7-27.23-60.7-60.7,0-9.74,2.32-18.95,6.42-27.12l40.64,40.64c3.76,3.76,8.7,5.64,13.64,5.64s9.88-1.88,13.65-5.64l40.63-40.63c4.1,8.17,6.42,17.37,6.42,27.11,0,33.47-27.23,60.7-60.7,60.7Z"/>
      </g>
    </g>
  </g>
</svg>