<?xml version="1.0" encoding="UTF-8"?>
<svg id="Layer_2" data-name="Layer 2" xmlns="http://www.w3.org/2000/svg" viewBox="0 0 649.94 226.46">
  <defs>
    <style>
      .cls-1 {
        fill: #2c6087;
      }

      .cls-1, .cls-2, .cls-3, .cls-4, .cls-5, .cls-6, .cls-7, .cls-8 {
        stroke-width: 0px;
      }

      .cls-2 {
        fill: #a0c776;
      }

      .cls-3 {
        fill: #ffcb37;
      }

      .cls-4 {
        fill: #ffca3c;
      }

      .cls-5 {
        fill: #ff4c48;
      }

      .cls-6 {
        fill: #9ec96d;
      }

      .cls-7 {
        fill: #286288;
      }

      .cls-8 {
        fill: #fc5140;
      }
    </style>
  </defs>
  <g id="Layer_1-2" data-name="Layer 1">
    <g>
      <path class="cls-1" d="M76.5,62.4c-.15-28.98,22.41-51.61,51.47-51.65,29.39-.04,51.97,21.83,52.09,50.45.12,30.01-21.94,52.52-51.55,52.61-29.88.08-51.85-21.64-52-51.41ZM161.55,62.83c.1-20.48-14.08-35.65-33.32-35.8-19.5-.15-33.04,15.31-33.38,34.27-.38,20.52,13.94,35.96,32.98,36.1,19.47.14,33.63-14.38,33.72-34.57Z"/>
      <path class="cls-1" d="M332.57,103.9c-8.78,8.35-18.68,11.24-30.06,9.15-12.26-2.25-19.83-10.59-20.08-22.27-.26-12.08,6.86-20.86,19.26-23.57,8.97-1.96,17.97-1.82,26.83.56,4.27,1.15,5.29-.01,4.45-4.23-1.26-6.35-4.89-10.18-11.08-11.68-7.5-1.81-14.83-.68-22.09,1.45-5.78,1.69-9.37.52-10.91-3.61-1.62-4.34.64-8.17,6.25-10.12,11.06-3.84,22.38-4.87,33.83-2.21,11.54,2.68,18.88,10.63,20.25,22.3,1.77,15.05.67,30.19.64,45.3-.01,4.7-3.13,7.2-7.61,7.77-4.85.61-7.89-2.09-9.68-8.86ZM333.61,84.57c.08-3.82.07-4.61-1.52-5.07-9.32-2.67-18.81-4.56-27.8.7-5.87,3.44-7.1,11.82-2.59,16.26,6.31,6.22,13.92,5.35,21.45,2.81,6.46-2.18,10.32-7.9,10.46-14.7Z"/>
      <path class="cls-1" d="M391.85,113.59c-9.66-.31-18.71-3.03-26.9-8.39-4.23-2.77-5.29-6.54-3.17-10.22,2.01-3.48,6.14-4.27,10.48-1.8,5.48,3.11,11.08,5.78,17.46,6.44,2.81.29,5.56.16,8.28-.51,3.29-.81,5.71-2.73,6.33-6.16.65-3.61-1.4-6.14-4.42-7.51-3.61-1.65-7.46-2.77-11.22-4.09-3.28-1.15-6.65-2.07-9.84-3.41-11.03-4.63-15.15-11.19-14.14-22.14.87-9.43,8.17-17.14,18.5-19.26,11.05-2.27,21.42.04,31.2,5.25,3.83,2.04,5.5,5.41,3.48,9.6-2.05,4.25-5.74,4.91-9.71,3.13-5.41-2.42-10.74-4.87-16.84-5.01-2.32-.05-4.5.25-6.6,1.14-2.38,1.01-4.11,2.66-4.34,5.37-.24,2.88,1.07,4.98,3.53,6.45,4.38,2.6,9.29,3.84,14.04,5.51,3.27,1.15,6.64,2.15,9.7,3.73,9.65,4.97,13.39,11.36,12.44,20.76-1.02,10.16-6.72,16.39-16.31,19.41-3.87,1.22-7.82,1.55-11.95,1.7Z"/>
      <path class="cls-1" d="M212.76,49.23c3.81-4.03,6.77-8.37,11.36-11.01,3.7-2.14,7.75-3.22,11.9-1.08,3.2,1.65,4.02,4.65,3.94,7.93-.09,4.28-2.63,6.94-6.56,7.63-13.52,2.37-20.27,13.56-20.59,27.45-.18,7.64,0,15.29-.11,22.93-.08,6.03-3.36,9.67-8.5,9.7-5.43.04-8.58-3.53-8.6-10.03-.05-18.59-.06-37.18-.02-55.78.02-7.08,2.95-10.73,8.41-10.75,5.54-.03,8.58,3.63,8.76,10.53.02.83,0,1.65,0,2.48Z"/>
      <path class="cls-1" d="M251.37,74.06c0-9.2-.09-18.4.02-27.6.09-7,2.94-10.42,8.22-10.31,5.04.11,9.05,4.58,9.06,10.39.03,18.75.02,37.49-.05,56.24-.03,6.57-3.05,9.92-8.63,9.95-5.51.03-8.5-3.32-8.58-10.03-.11-9.55-.03-19.09-.03-28.64Z"/>
      <path class="cls-1" d="M259.92,26.15c-5.98,0-9.85-3.6-9.74-9.06.1-5.35,3.75-8.67,9.57-8.69,6.2-.02,10.07,3.36,10.03,8.75-.04,5.52-3.85,8.99-9.85,8.99Z"/>
    </g>
    <rect class="cls-4" x="450.83" width="22.22" height="113.59"/>
    <rect class="cls-4" y="17.39" width="22.22" height="95.4"/>
    <rect class="cls-6" x="35.17" y="26.22" width="22.22" height="67.83"/>
    <rect class="cls-2" x="486.21" y="9.78" width="22.22" height="119.33"/>
    <rect class="cls-5" x="521.59" y="21.78" width="22.22" height="95.33"/>
    <rect class="cls-3" x="556.97" width="22.22" height="121.56"/>
    <rect class="cls-7" x="592.34" y="19.11" width="22.22" height="84"/>
    <rect class="cls-8" x="627.72" y="10.67" width="22.22" height="104.67"/>
    <g>
      <rect class="cls-1" x="78.06" y="131.89" width="2.93" height="27.67"/>
      <polygon class="cls-1" points="119.01 159.55 119.01 131.89 116.6 131.89 104.69 152.38 92.68 131.89 90.27 131.89 90.27 159.55 93.08 159.55 93.08 137.55 103.95 156.04 105.33 156.04 116.2 137.42 116.2 159.55 119.01 159.55"/>
      <polygon class="cls-1" points="142.72 152.38 130.71 131.89 128.3 131.89 128.3 159.55 131.1 159.55 131.1 137.55 141.97 156.04 143.36 156.04 154.23 137.42 154.23 159.55 157.03 159.55 157.03 131.89 154.62 131.89 142.72 152.38"/>
      <path class="cls-1" d="M168.25,152.16h15.44l3.31,7.39h3.08l-12.65-27.67h-2.89l-12.65,27.67h3.04l3.31-7.39ZM175.97,134.91l6.66,14.88h-13.32l6.66-14.88Z"/>
      <polygon class="cls-1" points="212.96 131.89 190.59 131.89 190.59 134.41 200.31 134.41 200.31 159.55 203.24 159.55 203.24 134.41 212.96 134.41 212.96 131.89"/>
      <path class="cls-1" d="M220.83,150.78h7.43c.78,0,1.51-.06,2.22-.14l6.32,8.92h3.2l-6.77-9.5c.37-.12.74-.25,1.08-.4,1.69-.75,2.98-1.83,3.89-3.24.91-1.41,1.36-3.09,1.36-5.04,0-2.98-1.01-5.3-3.02-6.98-2.02-1.67-4.78-2.51-8.28-2.51h-10.36v27.67h2.93v-8.78ZM234.49,136.23c1.44,1.21,2.15,2.92,2.15,5.14s-.72,3.89-2.15,5.1c-1.44,1.21-3.54,1.82-6.3,1.82h-7.35v-13.87h7.35c2.77,0,4.87.61,6.3,1.82Z"/>
      <rect class="cls-1" x="246.76" y="131.89" width="2.93" height="27.67"/>
      <path class="cls-1" d="M260.63,155.8c1.29,1.26,2.82,2.25,4.59,2.94,1.76.7,3.69,1.05,5.77,1.05s3.93-.34,5.69-1.03c1.76-.69,3.25-1.7,4.47-3.04l-1.86-1.86c-1.13,1.16-2.38,2-3.75,2.53-1.37.53-2.85.79-4.43.79-1.66,0-3.2-.28-4.62-.85-1.42-.57-2.66-1.37-3.72-2.41-1.05-1.04-1.88-2.25-2.47-3.64-.59-1.38-.89-2.91-.89-4.57s.3-3.18.89-4.57c.59-1.38,1.42-2.59,2.47-3.64,1.05-1.04,2.29-1.84,3.72-2.41,1.42-.57,2.96-.85,4.62-.85s3.06.26,4.43.77c1.37.51,2.62,1.35,3.75,2.51l1.86-1.86c-1.21-1.34-2.7-2.35-4.47-3.02-1.77-.67-3.65-1.01-5.65-1.01s-4.01.35-5.77,1.05c-1.77.7-3.3,1.68-4.6,2.95-1.3,1.26-2.32,2.75-3.04,4.47-.73,1.71-1.09,3.58-1.09,5.61s.36,3.9,1.09,5.61c.72,1.71,1.73,3.2,3.02,4.47Z"/>
      <path class="cls-1" d="M298.42,159.79c3.53,0,6.3-1.01,8.32-3.04,2.02-2.03,3.02-5.03,3.02-9.01v-15.85h-2.85v15.73c0,3.27-.74,5.68-2.21,7.23-1.48,1.55-3.57,2.33-6.29,2.33s-4.77-.78-6.25-2.33-2.21-3.97-2.21-7.23v-15.73h-2.93v15.85c0,3.98,1.01,6.98,3.04,9.01,2.03,2.03,4.81,3.04,8.34,3.04Z"/>
      <polygon class="cls-1" points="321.78 131.89 318.86 131.89 318.86 159.55 337.28 159.55 337.28 157.02 321.78 157.02 321.78 131.89"/>
      <polygon class="cls-1" points="361.98 157.02 345.34 157.02 345.34 146.75 359.65 146.75 359.65 144.26 345.34 144.26 345.34 134.41 361.39 134.41 361.39 131.89 342.42 131.89 342.42 159.55 361.98 159.55 361.98 157.02"/>
      <polygon class="cls-1" points="358.51 124.73 354.75 124.73 349.34 129.63 352.1 129.63 358.51 124.73"/>
      <polygon class="cls-1" points="400.48 159.55 402.9 159.55 402.9 131.89 400.01 131.89 400.01 154.32 382.18 131.89 379.77 131.89 379.77 159.55 382.7 159.55 382.7 137.12 400.48 159.55"/>
      <path class="cls-1" d="M412.76,143.37c.96.57,2.02.85,3.18.85s2.26-.28,3.22-.85c.96-.57,1.72-1.32,2.27-2.27.55-.95.83-2,.83-3.16s-.28-2.21-.83-3.16c-.55-.95-1.31-1.7-2.27-2.25-.96-.55-2.04-.83-3.22-.83s-2.22.28-3.18.83c-.96.55-1.72,1.3-2.27,2.25-.55.95-.83,2-.83,3.16s.28,2.25.83,3.18,1.31,1.69,2.27,2.25ZM411.99,135.58c.4-.7.94-1.25,1.64-1.64.7-.39,1.48-.59,2.35-.59s1.61.2,2.31.59c.7.4,1.25.94,1.64,1.64.4.7.59,1.48.59,2.35s-.2,1.65-.59,2.33-.94,1.24-1.64,1.66-1.47.63-2.31.63-1.65-.2-2.35-.61c-.7-.41-1.25-.96-1.64-1.66s-.59-1.48-.59-2.35.2-1.65.59-2.35Z"/>
    </g>
    <g>
      <path class="cls-1" d="M103.66,205.14c2.2-2.15,3.87-4.08,5.01-5.79s1.94-3.33,2.39-4.88c.44-1.54.67-3.11.67-4.7,0-2.71-.67-5.07-2-7.08s-3.22-3.54-5.65-4.59c-2.43-1.05-5.31-1.58-8.63-1.58-3.69,0-7.04.61-10.03,1.82-2.99,1.22-5.45,2.95-7.37,5.19l3.58,3.09c1.59-1.87,3.5-3.25,5.72-4.14,2.22-.89,4.78-1.33,7.68-1.33,3.79,0,6.65.82,8.59,2.46,1.94,1.64,2.91,3.88,2.91,6.73,0,1.08-.17,2.22-.49,3.44-.33,1.22-.96,2.51-1.89,3.89-.94,1.38-2.34,2.98-4.21,4.8l-20.41,19.99v3.58h34.44v-4.49h-27.04l16.73-16.41Z"/>
      <path class="cls-1" d="M145.6,198.9c-2.99-1.22-6.97-1.82-11.92-1.82h-6.33l1.65-15.64h22.49v-4.49h-26.86l-2.53,24.62h10.45c4.16,0,7.44.42,9.82,1.26s4.08,2.02,5.08,3.54c1,1.52,1.51,3.33,1.51,5.44,0,2.99-1.09,5.41-3.26,7.26-2.17,1.85-5.34,2.77-9.5,2.77-3.13,0-6.04-.54-8.73-1.61-2.69-1.08-4.81-2.43-6.35-4.07l-2.46,4c1.87,1.92,4.4,3.45,7.58,4.59,3.18,1.15,6.52,1.72,10.03,1.72,4.02,0,7.34-.65,9.96-1.96,2.62-1.31,4.58-3.1,5.89-5.37,1.31-2.27,1.96-4.78,1.96-7.54,0-2.9-.67-5.44-2-7.61s-3.5-3.87-6.49-5.08Z"/>
      <path class="cls-1" d="M190.64,179.5c-2.95-1.99-6.31-2.98-10.1-2.98s-7.16.99-10.1,2.98c-2.95,1.99-5.26,4.84-6.94,8.56s-2.53,8.2-2.53,13.43.84,9.71,2.53,13.43,4,6.57,6.94,8.56c2.95,1.99,6.31,2.98,10.1,2.98s7.15-.99,10.1-2.98c2.95-1.99,5.27-4.84,6.98-8.56,1.71-3.72,2.56-8.19,2.56-13.43s-.85-9.71-2.56-13.43c-1.71-3.72-4.03-6.57-6.98-8.56ZM193.16,212.61c-1.22,3.02-2.9,5.31-5.05,6.87-2.15,1.57-4.68,2.35-7.58,2.35s-5.31-.78-7.51-2.35c-2.2-1.57-3.9-3.86-5.12-6.87-1.22-3.02-1.82-6.72-1.82-11.12s.61-8.1,1.82-11.12c1.22-3.02,2.92-5.31,5.12-6.87s4.7-2.35,7.51-2.35,5.42.78,7.58,2.35c2.15,1.57,3.83,3.86,5.05,6.87,1.21,3.02,1.82,6.72,1.82,11.12s-.61,8.1-1.82,11.12Z"/>
      <path class="cls-1" d="M237.56,179.5c-2.95-1.99-6.31-2.98-10.1-2.98s-7.16.99-10.1,2.98c-2.95,1.99-5.26,4.84-6.94,8.56s-2.53,8.2-2.53,13.43.84,9.71,2.53,13.43,4,6.57,6.94,8.56c2.95,1.99,6.31,2.98,10.1,2.98s7.15-.99,10.1-2.98c2.95-1.99,5.27-4.84,6.98-8.56,1.71-3.72,2.56-8.19,2.56-13.43s-.85-9.71-2.56-13.43c-1.71-3.72-4.03-6.57-6.98-8.56ZM240.09,212.61c-1.22,3.02-2.9,5.31-5.05,6.87-2.15,1.57-4.68,2.35-7.58,2.35s-5.31-.78-7.51-2.35c-2.2-1.57-3.9-3.86-5.12-6.87-1.22-3.02-1.82-6.72-1.82-11.12s.61-8.1,1.82-11.12c1.22-3.02,2.92-5.31,5.12-6.87s4.7-2.35,7.51-2.35,5.42.78,7.58,2.35c2.15,1.57,3.83,3.86,5.05,6.87,1.21,3.02,1.82,6.72,1.82,11.12s-.61,8.1-1.82,11.12Z"/>
      <path class="cls-1" d="M283.79,198.48c-2.48-1.22-5.36-1.82-8.63-1.82-2.67,0-5.12.45-7.37,1.33-2.24.89-4.12,2.19-5.61,3.89-.84.96-1.51,2.05-2.05,3.25,0-.08-.02-.15-.02-.23-.12-1.52-.18-2.79-.18-3.82,0-6.69,1.58-11.71,4.74-15.08,3.16-3.37,7.38-5.05,12.66-5.05,1.82,0,3.55.17,5.19.53,1.64.35,3.09.95,4.35,1.79l2.03-4.07c-1.54-.93-3.32-1.61-5.33-2.03-2.01-.42-4.12-.63-6.31-.63-4.44,0-8.35.96-11.71,2.88-3.37,1.92-6,4.76-7.89,8.52-1.89,3.76-2.84,8.43-2.84,13.99,0,5.14.77,9.55,2.31,13.22,1.54,3.67,3.81,6.48,6.8,8.42,2.99,1.94,6.66,2.91,11.01,2.91,3.18,0,6.04-.62,8.59-1.86,2.55-1.24,4.55-2.99,6-5.26,1.45-2.27,2.17-4.92,2.17-7.96s-.7-5.59-2.1-7.79c-1.4-2.2-3.34-3.9-5.82-5.12ZM285.19,217.17c-1.03,1.61-2.44,2.85-4.24,3.72-1.8.87-3.87,1.3-6.21,1.3-2.81,0-5.18-.5-7.12-1.51-1.94-1-3.4-2.31-4.38-3.93-.98-1.61-1.47-3.31-1.47-5.09,0-2.06.54-3.89,1.61-5.51,1.08-1.61,2.55-2.89,4.42-3.82,1.87-.93,4.07-1.4,6.59-1.4,3.79,0,6.79.96,9.01,2.88,2.22,1.92,3.33,4.49,3.33,7.72,0,2.15-.51,4.03-1.54,5.65Z"/>
      <path class="cls-1" d="M322.86,198.9c-2.99-1.22-6.97-1.82-11.92-1.82h-6.33l1.65-15.64h22.49v-4.49h-26.86l-2.53,24.62h10.45c4.16,0,7.44.42,9.82,1.26s4.08,2.02,5.08,3.54c1,1.52,1.51,3.33,1.51,5.44,0,2.99-1.09,5.41-3.26,7.26-2.17,1.85-5.34,2.77-9.5,2.77-3.13,0-6.04-.54-8.73-1.61-2.69-1.08-4.81-2.43-6.35-4.07l-2.46,4c1.87,1.92,4.4,3.45,7.58,4.59,3.18,1.15,6.52,1.72,10.03,1.72,4.02,0,7.34-.65,9.96-1.96,2.62-1.31,4.58-3.1,5.89-5.37,1.31-2.27,1.96-4.78,1.96-7.54,0-2.9-.67-5.44-2-7.61s-3.5-3.87-6.49-5.08Z"/>
      <path class="cls-1" d="M367.89,179.5c-2.95-1.99-6.31-2.98-10.1-2.98s-7.16.99-10.1,2.98c-2.95,1.99-5.26,4.84-6.94,8.56s-2.53,8.2-2.53,13.43.84,9.71,2.53,13.43,4,6.57,6.94,8.56c2.95,1.99,6.31,2.98,10.1,2.98s7.15-.99,10.1-2.98c2.95-1.99,5.27-4.84,6.98-8.56,1.71-3.72,2.56-8.19,2.56-13.43s-.85-9.71-2.56-13.43c-1.71-3.72-4.03-6.57-6.98-8.56ZM370.41,212.61c-1.22,3.02-2.9,5.31-5.05,6.87-2.15,1.57-4.68,2.35-7.58,2.35s-5.31-.78-7.51-2.35c-2.2-1.57-3.9-3.86-5.12-6.87-1.22-3.02-1.82-6.72-1.82-11.12s.61-8.1,1.82-11.12c1.22-3.02,2.92-5.31,5.12-6.87s4.7-2.35,7.51-2.35,5.42.78,7.58,2.35c2.15,1.57,3.83,3.86,5.05,6.87,1.21,3.02,1.82,6.72,1.82,11.12s-.61,8.1-1.82,11.12Z"/>
      <path class="cls-1" d="M414.11,198.48c-2.48-1.22-5.36-1.82-8.63-1.82-2.67,0-5.12.45-7.37,1.33-2.24.89-4.12,2.19-5.61,3.89-.84.96-1.51,2.05-2.05,3.25,0-.08-.02-.15-.02-.23-.12-1.52-.18-2.79-.18-3.82,0-6.69,1.58-11.71,4.74-15.08,3.16-3.37,7.38-5.05,12.66-5.05,1.82,0,3.55.17,5.19.53,1.64.35,3.09.95,4.35,1.79l2.03-4.07c-1.54-.93-3.32-1.61-5.33-2.03-2.01-.42-4.12-.63-6.31-.63-4.44,0-8.35.96-11.71,2.88-3.37,1.92-6,4.76-7.89,8.52-1.89,3.76-2.84,8.43-2.84,13.99,0,5.14.77,9.55,2.31,13.22,1.54,3.67,3.81,6.48,6.8,8.42,2.99,1.94,6.66,2.91,11.01,2.91,3.18,0,6.04-.62,8.59-1.86,2.55-1.24,4.55-2.99,6-5.26,1.45-2.27,2.17-4.92,2.17-7.96s-.7-5.59-2.1-7.79c-1.4-2.2-3.34-3.9-5.82-5.12ZM415.52,217.17c-1.03,1.61-2.44,2.85-4.24,3.72-1.8.87-3.87,1.3-6.21,1.3-2.81,0-5.18-.5-7.12-1.51-1.94-1-3.4-2.31-4.38-3.93-.98-1.61-1.47-3.31-1.47-5.09,0-2.06.54-3.89,1.61-5.51,1.08-1.61,2.55-2.89,4.42-3.82,1.87-.93,4.07-1.4,6.59-1.4,3.79,0,6.79.96,9.01,2.88,2.22,1.92,3.33,4.49,3.33,7.72,0,2.15-.51,4.03-1.54,5.65Z"/>
    </g>
  </g>
</svg>