<svg xmlns="http://www.w3.org/2000/svg" xmlns:xlink="http://www.w3.org/1999/xlink" version="1.1" preserveAspectRatio="xMidYMid meet" x="0px" y="0px" viewBox="0 0 100 125"><defs><g id="a"><path fill="#000000" stroke="none" d=" M 44.05 34.6 L 44.05 15.3 8.3 15.3 8.3 57.15 17.15 57.15 Q 15.95 64.8 8.3 69.05 L 8.3 84.7 Q 19.25 82.2 28.2 75.5 36.65 68.8 40.4 59.3 44.05 49.5 44.05 34.6 M 91.7 34.6 L 91.7 15.3 55.95 15.3 55.95 57.15 64.75 57.15 Q 63.8 64.8 55.95 69.05 L 55.95 84.7 Q 66.85 82.2 75.8 75.5 84.65 68.8 88.05 59.3 91.7 49.5 91.7 34.6 Z"/></g></defs><g transform="matrix( 1, 0, 0, 1, 0,0) "><use xlink:href="#a"/></g></svg>