<svg xmlns="http://www.w3.org/2000/svg" xmlns:xlink="http://www.w3.org/1999/xlink" viewBox="0 0 439.7 79.7" style="enable-background:new 0 0 439.7 79.7" xml:space="preserve"><defs><path id="a" d="M0 0h79.7v79.7H0z"/></defs><clipPath id="b"><use xlink:href="#a" style="overflow:visible"/></clipPath><path style="clip-path:url(#b);fill:#00b67a" d="M-5-5h89.7v89.7H-5z"/><defs><path id="c" d="M67.8 32.5H46.4l-6.6-20.3-6.6 20.3H11.8l17.3 12.6-6.6 20.3 17.3-12.5 10.7-7.8 17.3-12.6zM39.9 52.8 52 49.6l5.1 15.7-17.2-12.5z"/></defs><clipPath id="d"><use xlink:href="#c" style="overflow:visible"/></clipPath><path style="clip-path:url(#d);fill:#fff" d="M6.8 7.3h66v63.2h-66z"/><defs><path id="e" d="M90 0h79.7v79.7H90z"/></defs><clipPath id="f"><use xlink:href="#e" style="overflow:visible"/></clipPath><path style="clip-path:url(#f);fill:#00b67a" d="M85-5h89.7v89.7H85z"/><defs><path id="g" d="M157.9 32.5h-21.4l-6.6-20.3-6.6 20.3h-21.4l17.3 12.6-6.6 20.3 17.3-12.5 10.7-7.8 17.3-12.6zm-28 20.3 12.1-3.2 5.1 15.7-17.2-12.5z"/></defs><clipPath id="h"><use xlink:href="#g" style="overflow:visible"/></clipPath><path style="clip-path:url(#h);fill:#fff" d="M96.8 7.3h66v63.2h-66z"/><g><defs><path id="i" d="M180 0h79.7v79.7H180z"/></defs><clipPath id="j"><use xlink:href="#i" style="overflow:visible"/></clipPath><path style="clip-path:url(#j);fill:#00b67a" d="M175-5h89.7v89.7H175z"/></g><g><defs><path id="k" d="M247.9 32.5h-21.4l-6.6-20.3-6.6 20.3h-21.4l17.3 12.6-6.6 20.3 17.3-12.5 10.7-7.8 17.3-12.6zm-28 20.3 12.1-3.2 5.1 15.7-17.2-12.5z"/></defs><clipPath id="l"><use xlink:href="#k" style="overflow:visible"/></clipPath><path style="clip-path:url(#l);fill:#fff" d="M186.8 7.3h66v63.2h-66z"/></g><g><defs><path id="m" d="M270 0h79.7v79.7H270z"/></defs><clipPath id="n"><use xlink:href="#m" style="overflow:visible"/></clipPath><path style="clip-path:url(#n);fill:#00b67a" d="M265-5h89.7v89.7H265z"/></g><g><defs><path id="o" d="M337.9 32.5h-21.4l-6.6-20.3-6.6 20.3h-21.4l17.3 12.6-6.6 20.3 17.3-12.5 10.7-7.8 17.3-12.6zM310 52.8l12.1-3.2 5.1 15.7L310 52.8z"/></defs><clipPath id="p"><use xlink:href="#o" style="overflow:visible"/></clipPath><path style="clip-path:url(#p);fill:#fff" d="M276.9 7.3h66v63.2h-66z"/></g><g><defs><path id="q" d="M360 0h79.7v79.7H360z"/></defs><clipPath id="r"><use xlink:href="#q" style="overflow:visible"/></clipPath><path style="clip-path:url(#r);fill:#00b67a" d="M355-5h89.7v89.7H355z"/></g><g><defs><path id="s" d="M427.9 32.5h-21.4l-6.6-20.3-6.6 20.3h-21.4l17.3 12.6-6.6 20.3 17.3-12.5 10.7-7.8 17.3-12.6zM400 52.8l12.1-3.2 5.1 15.7L400 52.8z"/></defs><clipPath id="t"><use xlink:href="#s" style="overflow:visible"/></clipPath><path style="clip-path:url(#t);fill:#fff" d="M366.9 7.3h66v63.2h-66z"/></g></svg>