<?xml version="1.0" encoding="UTF-8"?>
<svg id="Layer_2" data-name="Layer 2" xmlns="http://www.w3.org/2000/svg" xmlns:xlink="http://www.w3.org/1999/xlink" viewBox="0 0 1000 459.28">
  <defs>
    <style>
      .cls-1 {
        fill: #00b67a;
      }

      .cls-1, .cls-2, .cls-3, .cls-4, .cls-5 {
        stroke-width: 0px;
      }

      .cls-2 {
        fill: #005128;
      }

      .cls-6 {
        clip-path: url(#clippath-2);
      }

      .cls-7 {
        clip-path: url(#clippath-6);
      }

      .cls-3 {
        fill: none;
      }

      .cls-8 {
        clip-path: url(#clippath-7);
      }

      .cls-9 {
        clip-path: url(#clippath-1);
      }

      .cls-10 {
        clip-path: url(#clippath-4);
      }

      .cls-4 {
        fill: #fff;
      }

      .cls-11 {
        clip-path: url(#clippath-9);
      }

      .cls-12 {
        clip-path: url(#clippath);
      }

      .cls-13 {
        clip-path: url(#clippath-3);
      }

      .cls-14 {
        clip-path: url(#clippath-8);
      }

      .cls-15 {
        clip-path: url(#clippath-5);
      }

      .cls-5 {
        fill: #191919;
      }
    </style>
    <clipPath id="clippath">
      <rect class="cls-3" y="278.02" width="181.26" height="181.26"/>
    </clipPath>
    <clipPath id="clippath-1">
      <path class="cls-3" d="M154.2,351.94h-48.67l-15.01-46.17-15.01,46.17H26.84l39.35,28.66-15.01,46.17,39.35-28.43,24.33-17.74s39.35-28.66,39.35-28.66ZM90.74,398.11l27.52-7.28,11.6,35.71s-39.12-28.43-39.12-28.43Z"/>
    </clipPath>
    <clipPath id="clippath-2">
      <rect class="cls-3" x="204.69" y="278.02" width="181.26" height="181.26"/>
    </clipPath>
    <clipPath id="clippath-3">
      <path class="cls-3" d="M359.11,351.94h-48.67l-15.01-46.17-15.01,46.17h-48.67l39.35,28.66-15.01,46.17,39.34-28.43,24.33-17.74s39.35-28.66,39.35-28.66ZM295.43,398.11l27.52-7.28,11.6,35.71-39.12-28.43h0Z"/>
    </clipPath>
    <clipPath id="clippath-4">
      <rect class="cls-3" x="409.37" y="278.02" width="181.26" height="181.26"/>
    </clipPath>
    <clipPath id="clippath-5">
      <path class="cls-3" d="M563.79,351.94h-48.67l-15.01-46.17-15.01,46.17h-48.67l39.35,28.66-15.01,46.17,39.35-28.43,24.33-17.74s39.35-28.66,39.35-28.66ZM500.11,398.11l27.52-7.28,11.6,35.71-39.12-28.43h0Z"/>
    </clipPath>
    <clipPath id="clippath-6">
      <rect class="cls-3" x="614.06" y="278.02" width="181.26" height="181.26"/>
    </clipPath>
    <clipPath id="clippath-7">
      <path class="cls-3" d="M768.48,351.94h-48.67l-15.01-46.17-15.01,46.17h-48.67l39.34,28.66-15.01,46.17,39.34-28.43,24.33-17.74,39.34-28.66h0ZM705.03,398.11l27.52-7.28,11.6,35.71-39.12-28.43Z"/>
    </clipPath>
    <clipPath id="clippath-8">
      <rect class="cls-3" x="818.74" y="278.02" width="181.26" height="181.26"/>
    </clipPath>
    <clipPath id="clippath-9">
      <path class="cls-3" d="M973.16,351.94h-48.67l-15.01-46.17-15.01,46.17h-48.67l39.34,28.66-15.01,46.17,39.34-28.43,24.33-17.74,39.34-28.66h0ZM909.71,398.11l27.52-7.28,11.6,35.71-39.12-28.43Z"/>
    </clipPath>
  </defs>
  <g id="Layer_1-2" data-name="Layer 1">
    <g>
      <path class="cls-5" d="M262.75,87.03h101.24v18.89h-39.81v106.18h-21.89v-106.18h-39.63v-18.89h.09ZM359.66,121.54h18.71v17.48h.35c.62-2.47,1.77-4.85,3.44-7.15s3.71-4.5,6.09-6.35c2.38-1.94,5.03-3.44,7.94-4.68,2.91-1.15,5.91-1.77,8.91-1.77,2.29,0,3.97.09,4.85.18s1.77.26,2.74.35v19.24c-1.41-.26-2.82-.44-4.32-.62-1.5-.18-2.91-.26-4.32-.26-3.35,0-6.53.71-9.53,2.03s-5.56,3.35-7.77,5.91c-2.21,2.65-3.97,5.83-5.3,9.71s-1.94,8.3-1.94,13.33v43.07h-19.95v-90.47h.09ZM504.41,212.09h-19.59v-12.62h-.35c-2.47,4.59-6.09,8.21-10.94,10.94-4.85,2.74-9.8,4.15-14.83,4.15-11.92,0-20.56-2.91-25.86-8.83s-7.94-14.83-7.94-26.74v-57.46h19.95v55.52c0,7.94,1.5,13.59,4.59,16.86,3,3.27,7.33,4.94,12.8,4.94,4.24,0,7.68-.62,10.5-1.94s5.12-3,6.8-5.21c1.77-2.12,3-4.77,3.8-7.77.79-3,1.15-6.27,1.15-9.8v-52.52h19.95v90.47ZM538.39,183.05c.62,5.83,2.82,9.89,6.62,12.27,3.88,2.29,8.47,3.53,13.86,3.53,1.85,0,3.97-.18,6.35-.44s4.68-.88,6.71-1.68c2.12-.79,3.8-2.03,5.21-3.62,1.32-1.59,1.94-3.62,1.85-6.18-.09-2.56-1.06-4.68-2.82-6.27-1.77-1.68-3.97-2.91-6.71-3.97-2.74-.97-5.83-1.85-9.36-2.56-3.53-.71-7.06-1.5-10.68-2.29-3.71-.79-7.33-1.85-10.77-3-3.44-1.15-6.53-2.74-9.27-4.77-2.74-1.94-4.94-4.5-6.53-7.59-1.68-3.09-2.47-6.88-2.47-11.47,0-4.94,1.24-9,3.62-12.36,2.38-3.35,5.47-6,9.09-8.03,3.71-2.03,7.77-3.44,12.27-4.32,4.5-.79,8.83-1.24,12.89-1.24,4.68,0,9.18.53,13.42,1.5,4.24.97,8.12,2.56,11.56,4.85,3.44,2.21,6.27,5.12,8.56,8.65,2.29,3.53,3.71,7.86,4.32,12.89h-20.83c-.97-4.77-3.09-8.03-6.53-9.62-3.44-1.68-7.41-2.47-11.83-2.47-1.41,0-3.09.09-5.03.35-1.94.26-3.71.71-5.47,1.32-1.68.62-3.09,1.59-4.32,2.82-1.15,1.24-1.77,2.82-1.77,4.85,0,2.47.88,4.41,2.56,5.91s3.88,2.74,6.62,3.8c2.74.97,5.83,1.85,9.36,2.56,3.53.71,7.15,1.5,10.86,2.29,3.62.79,7.15,1.85,10.68,3,3.53,1.15,6.62,2.74,9.36,4.77,2.74,2.03,4.94,4.5,6.62,7.5s2.56,6.8,2.56,11.21c0,5.38-1.24,9.89-3.71,13.68-2.47,3.71-5.65,6.8-9.53,9.09-3.88,2.29-8.3,4.06-13.06,5.12-4.77,1.06-9.53,1.59-14.21,1.59-5.74,0-11.03-.62-15.89-1.94s-9.09-3.27-12.62-5.83c-3.53-2.65-6.35-5.91-8.38-9.8-2.03-3.88-3.09-8.56-3.27-13.95h20.12v-.18ZM604.24,121.54h15.09v-27.18h19.95v27.18h18.01v14.92h-18.01v48.37c0,2.12.09,3.88.26,5.47.18,1.5.62,2.82,1.24,3.88s1.59,1.85,2.91,2.38c1.32.53,3,.79,5.3.79,1.41,0,2.82,0,4.24-.09s2.82-.26,4.24-.62v15.45c-2.21.26-4.41.44-6.44.71-2.12.26-4.24.35-6.44.35-5.3,0-9.53-.53-12.71-1.5-3.18-.97-5.74-2.47-7.5-4.41-1.85-1.94-3-4.32-3.71-7.24-.62-2.91-1.06-6.27-1.15-9.97v-53.4h-15.09v-15.09h-.18ZM671.4,121.54h18.89v12.27h.35c2.82-5.3,6.71-9,11.74-11.3s10.41-3.44,16.33-3.44c7.15,0,13.33,1.24,18.62,3.8,5.3,2.47,9.71,5.91,13.24,10.33s6.09,9.53,7.86,15.36c1.77,5.83,2.65,12.09,2.65,18.71,0,6.09-.79,12-2.38,17.65-1.59,5.74-3.97,10.77-7.15,15.18s-7.24,7.86-12.18,10.5c-4.94,2.65-10.68,3.97-17.39,3.97-2.91,0-5.83-.26-8.74-.79-2.91-.53-5.74-1.41-8.38-2.56-2.65-1.15-5.21-2.65-7.41-4.5-2.29-1.85-4.15-3.97-5.74-6.35h-.35v45.19h-19.95v-124.01ZM741.13,166.9c0-4.06-.53-8.03-1.59-11.92s-2.65-7.24-4.77-10.24c-2.12-3-4.77-5.38-7.86-7.15-3.18-1.77-6.8-2.74-10.86-2.74-8.38,0-14.74,2.91-18.98,8.74-4.24,5.83-6.35,13.59-6.35,23.3,0,4.59.53,8.83,1.68,12.71,1.15,3.88,2.74,7.24,5.03,10.06,2.21,2.82,4.85,5.03,7.94,6.62,3.09,1.68,6.71,2.47,10.77,2.47,4.59,0,8.38-.97,11.56-2.82,3.18-1.85,5.74-4.32,7.77-7.24,2.03-3,3.53-6.35,4.41-10.15.79-3.8,1.24-7.68,1.24-11.65h0ZM776.35,87.03h19.95v18.89h-19.95s0-18.89,0-18.89ZM776.35,121.54h19.95v90.56h-19.95v-90.56h0ZM814.12,87.03h19.95v125.07h-19.95v-125.07h0ZM895.23,214.56c-7.24,0-13.68-1.24-19.33-3.62-5.65-2.38-10.41-5.74-14.39-9.89-3.88-4.24-6.88-9.27-8.91-15.09s-3.09-12.27-3.09-19.24,1.06-13.24,3.09-19.06,5.03-10.86,8.91-15.09c3.88-4.24,8.74-7.5,14.39-9.89,5.65-2.38,12.09-3.62,19.33-3.62s13.68,1.24,19.33,3.62c5.65,2.38,10.41,5.74,14.39,9.89,3.88,4.24,6.88,9.27,8.91,15.09,2.03,5.83,3.09,12.18,3.09,19.06s-1.06,13.42-3.09,19.24-5.03,10.86-8.91,15.09-8.74,7.5-14.39,9.89c-5.65,2.38-12.09,3.62-19.33,3.62h0ZM895.23,198.76c4.41,0,8.3-.97,11.56-2.82,3.27-1.85,5.91-4.32,8.03-7.33,2.12-3,3.62-6.44,4.68-10.24.97-3.8,1.5-7.68,1.5-11.65s-.53-7.68-1.5-11.56-2.56-7.24-4.68-10.24c-2.12-3-4.77-5.38-8.03-7.24-3.27-1.85-7.15-2.82-11.56-2.82s-8.3.97-11.56,2.82c-3.27,1.85-5.91,4.32-8.03,7.24-2.12,3-3.62,6.35-4.68,10.24-.97,3.88-1.5,7.68-1.5,11.56s.53,7.86,1.5,11.65c.97,3.8,2.56,7.24,4.68,10.24,2.12,3,4.77,5.47,8.03,7.33,3.27,1.94,7.15,2.82,11.56,2.82h0ZM946.78,121.54h15.09v-27.18h19.95v27.18h18.01v14.92h-18.01v48.37c0,2.12.09,3.88.26,5.47.18,1.5.62,2.82,1.24,3.88.62,1.06,1.59,1.85,2.91,2.38,1.32.53,3,.79,5.3.79,1.41,0,2.82,0,4.24-.09,1.41-.09,2.82-.26,4.24-.62v15.45c-2.21.26-4.41.44-6.44.71-2.12.26-4.24.35-6.44.35-5.3,0-9.53-.53-12.71-1.5-3.18-.97-5.74-2.47-7.5-4.41-1.85-1.94-3-4.32-3.71-7.24-.62-2.91-1.06-6.27-1.15-9.97v-53.4h-15.09v-15.09h-.18Z"/>
      <path class="cls-1" d="M239.45,87.03h-91.44L119.77,0l-28.33,87.03-91.44-.09,74.05,53.84-28.33,86.94,74.05-53.75,73.96,53.75-28.24-86.94,73.96-53.75Z"/>
      <path class="cls-2" d="M171.84,160.46l-6.35-19.68-45.72,33.19,52.07-13.5Z"/>
    </g>
    <g>
      <g class="cls-12">
        <path class="cls-1" d="M-11.37,266.65h204v204H-11.37v-204Z"/>
      </g>
      <g class="cls-9">
        <path class="cls-4" d="M15.47,294.63h150.1v143.73H15.47v-143.73Z"/>
      </g>
      <g class="cls-6">
        <path class="cls-1" d="M193.31,266.65h204v204h-204v-204Z"/>
      </g>
      <g class="cls-13">
        <path class="cls-4" d="M220.15,294.63h150.1v143.73h-150.1v-143.73Z"/>
      </g>
      <g class="cls-10">
        <path class="cls-1" d="M398,266.65h204v204h-204v-204Z"/>
      </g>
      <g class="cls-15">
        <path class="cls-4" d="M424.84,294.63h150.1v143.73h-150.1v-143.73Z"/>
      </g>
      <g class="cls-7">
        <path class="cls-1" d="M602.68,266.65h204v204h-204v-204Z"/>
      </g>
      <g class="cls-8">
        <path class="cls-4" d="M629.75,294.63h150.1v143.73h-150.1v-143.73Z"/>
      </g>
      <g class="cls-14">
        <path class="cls-1" d="M807.37,266.65h204v204h-204v-204Z"/>
      </g>
      <g class="cls-11">
        <path class="cls-4" d="M834.43,294.63h150.1v143.73h-150.1v-143.73Z"/>
      </g>
    </g>
  </g>
</svg>