<svg width="172" height="24" viewBox="0 0 172 24" fill="none" xmlns="http://www.w3.org/2000/svg">
<path d="M25.682 8.50598H35.5771V10.3521H31.6863V20.7303H29.5468V10.3521H25.6733V8.50598H25.682ZM35.1543 11.8791H36.9832V13.5872H37.0178C37.0781 13.3457 37.1903 13.1128 37.3542 12.8885C37.5181 12.6642 37.7165 12.4485 37.9495 12.2673C38.1824 12.0775 38.4412 11.9309 38.7259 11.8101C39.0106 11.6979 39.3039 11.6376 39.5972 11.6376C39.8215 11.6376 39.9854 11.6462 40.0717 11.6548C40.158 11.6634 40.2442 11.6807 40.3391 11.6893V13.57C40.2011 13.5441 40.0631 13.5269 39.9164 13.5096C39.7697 13.4923 39.6317 13.4837 39.4937 13.4837C39.1659 13.4837 38.8553 13.5527 38.562 13.6821C38.2687 13.8115 38.0185 14.01 37.8028 14.2601C37.5871 14.519 37.4146 14.8295 37.2852 15.2091C37.1558 15.5887 37.0954 16.02 37.0954 16.5118V20.7217H35.1457V11.8791H35.1543ZM49.3025 20.7303H47.3873V19.4967H47.3528C47.1113 19.9453 46.7576 20.299 46.2831 20.5664C45.8086 20.8339 45.3255 20.9719 44.8338 20.9719C43.6691 20.9719 42.8237 20.6872 42.3061 20.1092C41.7884 19.5312 41.5296 18.6599 41.5296 17.4952V11.8791H43.4793V17.3055C43.4793 18.0819 43.626 18.634 43.9279 18.9532C44.2212 19.2724 44.644 19.4363 45.1788 19.4363C45.5929 19.4363 45.9294 19.3759 46.2054 19.2465C46.4815 19.1171 46.7058 18.9532 46.8697 18.7375C47.0422 18.5305 47.163 18.2717 47.2407 17.9784C47.3183 17.685 47.3528 17.3658 47.3528 17.0208V11.8877H49.3025V20.7303ZM52.6239 17.8921C52.6843 18.4615 52.8999 18.8583 53.2709 19.0912C53.6505 19.3155 54.0991 19.4363 54.6253 19.4363C54.8065 19.4363 55.0135 19.4191 55.2465 19.3932C55.4794 19.3673 55.7037 19.3069 55.9021 19.2293C56.1092 19.1516 56.2731 19.0308 56.4111 18.8756C56.5405 18.7203 56.6009 18.5218 56.5923 18.2717C56.5836 18.0215 56.4887 17.8144 56.3162 17.6592C56.1437 17.4952 55.928 17.3745 55.6606 17.2709C55.3931 17.176 55.0912 17.0898 54.7461 17.0208C54.401 16.9517 54.0559 16.8741 53.7022 16.7965C53.3399 16.7188 52.9862 16.6153 52.6498 16.5031C52.3133 16.391 52.0114 16.2357 51.7439 16.0373C51.4765 15.8475 51.2608 15.5973 51.1055 15.2954C50.9416 14.9934 50.864 14.6225 50.864 14.1739C50.864 13.6908 50.9848 13.2939 51.2177 12.9661C51.4506 12.6383 51.7526 12.3795 52.1063 12.1811C52.4686 11.9826 52.8654 11.8446 53.3054 11.7583C53.7454 11.6807 54.1681 11.6376 54.5649 11.6376C55.0222 11.6376 55.4621 11.6893 55.8762 11.7842C56.2903 11.8791 56.6699 12.0344 57.0064 12.2587C57.3428 12.4744 57.6189 12.7591 57.8432 13.1041C58.0675 13.4492 58.2055 13.8719 58.2659 14.3637H56.2299C56.135 13.8978 55.928 13.5786 55.5915 13.4233C55.2551 13.2594 54.8669 13.1818 54.4355 13.1818C54.2975 13.1818 54.1336 13.1904 53.9438 13.2163C53.754 13.2422 53.5815 13.2853 53.4089 13.3457C53.245 13.4061 53.107 13.501 52.9862 13.6218C52.8741 13.7425 52.8137 13.8978 52.8137 14.0962C52.8137 14.3378 52.8999 14.5276 53.0638 14.6742C53.2278 14.8209 53.4434 14.9417 53.7109 15.0452C53.9783 15.1401 54.2802 15.2264 54.6253 15.2954C54.9704 15.3644 55.3241 15.442 55.6864 15.5197C56.0401 15.5973 56.3852 15.7008 56.7303 15.813C57.0754 15.9251 57.3773 16.0804 57.6448 16.2788C57.9122 16.4773 58.1279 16.7188 58.2918 17.0121C58.4557 17.3055 58.542 17.6764 58.542 18.1078C58.542 18.634 58.4212 19.074 58.1796 19.4449C57.9381 19.8073 57.6275 20.1092 57.2479 20.3335C56.8683 20.5578 56.437 20.7303 55.9711 20.8339C55.5053 20.9374 55.0394 20.9892 54.5822 20.9892C54.0214 20.9892 53.5038 20.9288 53.0293 20.7994C52.5549 20.67 52.1408 20.4802 51.7957 20.23C51.4506 19.9712 51.1746 19.652 50.9761 19.2724C50.7777 18.8928 50.6742 18.4356 50.6569 17.9093H52.6239V17.8921ZM59.0596 11.8791H60.5348V9.22202H62.4845V11.8791H64.2444V13.3371H62.4845V18.0646C62.4845 18.2717 62.4931 18.4442 62.5103 18.5995C62.5276 18.7462 62.5707 18.8756 62.6311 18.9791C62.6915 19.0826 62.7864 19.1602 62.9158 19.212C63.0452 19.2638 63.2091 19.2896 63.4334 19.2896C63.5715 19.2896 63.7095 19.2896 63.8475 19.281C63.9855 19.2724 64.1236 19.2551 64.2616 19.2206V20.7303C64.0459 20.7562 63.8303 20.7735 63.6318 20.7994C63.4248 20.8252 63.2178 20.8339 63.0021 20.8339C62.4845 20.8339 62.0704 20.7821 61.7598 20.6872C61.4492 20.5923 61.1991 20.4457 61.0265 20.2559C60.8453 20.0661 60.7332 19.8331 60.6642 19.5485C60.6038 19.2638 60.5607 18.9359 60.552 18.5736V13.3543H59.0768V11.8791H59.0596ZM65.6247 11.8791H67.4708V13.0783H67.5053C67.7814 12.5606 68.161 12.1983 68.6527 11.974C69.1445 11.7497 69.6707 11.6376 70.2487 11.6376C70.9475 11.6376 71.5514 11.7583 72.069 12.0085C72.5866 12.2501 73.018 12.5865 73.363 13.0179C73.7081 13.4492 73.9583 13.9496 74.1308 14.519C74.3034 15.0883 74.3896 15.7008 74.3896 16.3479C74.3896 16.9431 74.312 17.5211 74.1567 18.0732C74.0014 18.634 73.7685 19.1257 73.4579 19.5571C73.1474 19.9884 72.7505 20.3249 72.2674 20.5837C71.7843 20.8425 71.2235 20.9719 70.5679 20.9719C70.2832 20.9719 69.9985 20.946 69.7138 20.8943C69.4291 20.8425 69.1531 20.7562 68.8943 20.6441C68.6355 20.5319 68.3853 20.3853 68.1696 20.2041C67.9453 20.0229 67.7641 19.8159 67.6089 19.583H67.5743V24H65.6247V11.8791ZM72.4399 16.3134C72.4399 15.9165 72.3882 15.5283 72.2847 15.1487C72.1811 14.7691 72.0259 14.4413 71.8188 14.148C71.6118 13.8547 71.3529 13.6218 71.051 13.4492C70.7404 13.2767 70.3867 13.1818 69.9899 13.1818C69.1703 13.1818 68.5492 13.4665 68.1351 14.0358C67.721 14.6052 67.514 15.3644 67.514 16.3134C67.514 16.762 67.5657 17.176 67.6779 17.5556C67.79 17.9352 67.9453 18.263 68.1696 18.5391C68.3853 18.8152 68.6441 19.0308 68.946 19.1861C69.248 19.35 69.6017 19.4277 69.9985 19.4277C70.4471 19.4277 70.8181 19.3328 71.1287 19.1516C71.4392 18.9705 71.6894 18.7289 71.8878 18.4442C72.0862 18.1509 72.2329 17.8231 72.3192 17.4521C72.3968 17.0812 72.4399 16.7016 72.4399 16.3134ZM75.8821 8.50598H77.8318V10.3521H75.8821V8.50598ZM75.8821 11.8791H77.8318V20.7303H75.8821V11.8791ZM79.5744 8.50598H81.5241V20.7303H79.5744V8.50598ZM87.5026 20.9719C86.7952 20.9719 86.1654 20.8511 85.6133 20.6182C85.0611 20.3853 84.5953 20.0574 84.2071 19.652C83.8275 19.2379 83.5342 18.7461 83.3358 18.1768C83.1373 17.6074 83.0338 16.9776 83.0338 16.2961C83.0338 15.6232 83.1373 15.0021 83.3358 14.4327C83.5342 13.8633 83.8275 13.3716 84.2071 12.9575C84.5867 12.5434 85.0611 12.2242 85.6133 11.9913C86.1654 11.7583 86.7952 11.6376 87.5026 11.6376C88.21 11.6376 88.8397 11.7583 89.3919 11.9913C89.944 12.2242 90.4098 12.552 90.7981 12.9575C91.1776 13.3716 91.471 13.8633 91.6694 14.4327C91.8678 15.0021 91.9713 15.6232 91.9713 16.2961C91.9713 16.9776 91.8678 17.6074 91.6694 18.1768C91.471 18.7461 91.1776 19.2379 90.7981 19.652C90.4185 20.0661 89.944 20.3853 89.3919 20.6182C88.8397 20.8511 88.21 20.9719 87.5026 20.9719ZM87.5026 19.4277C87.9339 19.4277 88.3135 19.3328 88.6327 19.1516C88.9519 18.9705 89.2107 18.7289 89.4177 18.4356C89.6248 18.1423 89.7715 17.8058 89.875 17.4349C89.9699 17.0639 90.0216 16.6843 90.0216 16.2961C90.0216 15.9165 89.9699 15.5456 89.875 15.166C89.7801 14.7864 89.6248 14.4586 89.4177 14.1652C89.2107 13.8719 88.9519 13.639 88.6327 13.4578C88.3135 13.2767 87.9339 13.1818 87.5026 13.1818C87.0712 13.1818 86.6916 13.2767 86.3724 13.4578C86.0532 13.639 85.7944 13.8806 85.5874 14.1652C85.3803 14.4586 85.2337 14.7864 85.1302 15.166C85.0353 15.5456 84.9835 15.9165 84.9835 16.2961C84.9835 16.6843 85.0353 17.0639 85.1302 17.4349C85.2251 17.8058 85.3803 18.1423 85.5874 18.4356C85.7944 18.7289 86.0532 18.9705 86.3724 19.1516C86.6916 19.3414 87.0712 19.4277 87.5026 19.4277ZM92.5407 11.8791H94.0159V9.22202H95.9656V11.8791H97.7255V13.3371H95.9656V18.0646C95.9656 18.2717 95.9742 18.4442 95.9915 18.5995C96.0087 18.7462 96.0519 18.8756 96.1122 18.9791C96.1726 19.0826 96.2675 19.1602 96.3969 19.212C96.5263 19.2638 96.6903 19.2896 96.9146 19.2896C97.0526 19.2896 97.1906 19.2896 97.3286 19.281C97.4667 19.2724 97.6047 19.2551 97.7427 19.2206V20.7303C97.5271 20.7562 97.3114 20.7735 97.113 20.7994C96.9059 20.8252 96.6989 20.8339 96.4832 20.8339C95.9656 20.8339 95.5515 20.7821 95.2409 20.6872C94.9304 20.5923 94.6802 20.4457 94.5076 20.2559C94.3265 20.0661 94.2143 19.8331 94.1453 19.5485C94.0849 19.2638 94.0418 18.9359 94.0332 18.5736V13.3543H92.558V11.8791H92.5407Z" fill="#383838"/>
<path d="M23.4049 8.50616H14.4674L11.7067 0L8.9375 8.50616L0 8.49753L7.238 13.76L4.46875 22.2575L11.7067 17.0037L18.9361 22.2575L16.1755 13.76L23.4049 8.50616Z" fill="#383838"/>
<path d="M16.7967 15.6839L16.1755 13.7601L11.7068 17.0038L16.7967 15.6839Z" fill="white"/>
<path d="M118.193 9H106V20.9999H118.193V9Z" fill="#383838"/>
<path d="M131.404 9H119.21V20.9999H131.404V9Z" fill="#383838"/>
<path d="M144.612 9H132.419V20.9999H144.612V9Z" fill="#383838"/>
<path d="M157.822 9H145.628V20.9999H157.822V9Z" fill="#383838"/>
<path d="M171.032 9H164.935V20.9999H171.032V9Z" fill="#383838"/>
<path d="M164.935 9.00006H158.838V21H164.935V9.00006Z" fill="#383838"/>
<path d="M112.097 17.0876L113.952 16.6251L114.727 18.9751L112.097 17.0876ZM116.365 14.0501H113.101L112.097 11.0251L111.094 14.0501H107.83L110.472 15.9251L109.468 18.9501L112.11 17.0751L113.736 15.9251L116.365 14.0501Z" fill="white"/>
<path d="M125.307 17.0876L127.161 16.6251L127.936 18.9751L125.307 17.0876ZM129.574 14.0501H126.31L125.307 11.0251L124.303 14.0501H121.039L123.681 15.9251L122.678 18.9501L125.319 17.0751L126.945 15.9251L129.574 14.0501Z" fill="white"/>
<path d="M138.516 17.0876L140.371 16.6251L141.145 18.9751L138.516 17.0876ZM142.784 14.0501H139.52L138.516 11.0251L137.513 14.0501H134.249L136.89 15.9251L135.887 18.9501L138.529 17.0751L140.155 15.9251L142.784 14.0501Z" fill="white"/>
<path d="M151.727 17.0876L153.581 16.6251L154.356 18.9751L151.727 17.0876ZM155.994 14.0501H152.73L151.727 11.0251L150.723 14.0501H147.459L150.101 15.9251L149.097 18.9501L151.739 17.0751L153.365 15.9251L155.994 14.0501Z" fill="white"/>
<path d="M164.936 17.0876L166.791 16.6251L167.565 18.9751L164.936 17.0876ZM169.204 14.0501H165.94L164.936 11.0251L163.933 14.0501H160.668L163.31 15.9251L162.307 18.9501L164.949 17.0751L166.575 15.9251L169.204 14.0501Z" fill="white"/>
</svg>
