<svg version="1.2" xmlns="http://www.w3.org/2000/svg" viewBox="0 0 1538 386" width="1538" height="386">
	<title>SL-Logo-svg-svg</title>
	<style>
		.s0 { fill: #ed1a3b } 
		.s1 { fill: #ffffff } 
		.s2 { fill: #000000 } 
	</style>
	<path id="Layer" class="s0" d="m1191 166.5c46.5-51 97.6-61.4 140.2-100.8 27.2-24.6 35.6-47.9 40.7-60.2 0.7-0.6 0.7-1.3 0.7-1.9-0.7-0.7-1.3-0.7-2-0.7-11-1.9-29.1-2.5-43.3-1.3-11.6 1.3-25.2 3.3-33.6 5.9-0.6 0-1.3 0.6-1.9 0.6-0.7 0.7-0.7 0.7-0.7 1.3-7.1 25.2-47.1 53.7-56.8 61.4-14.2 11.7-26.5 22-38.8 35-10.3 11-20.7 23.9-27.8 36.8-7.7 13-11.6 26.5-13.6 39.5-1.9 11-1.9 21.3-1.2 29.1v2.6c1.2 11.6 3.2 16.8 3.2 17.4 0 1.3 0.6 2 1.3 2 0.6 0 0.6-1.3 1.3-2 0-0.6 1.3-5.2 2.6-9 1.2-4.6 1.9-6.5 3.2-11 3.2-11 10.3-27.2 26.5-44.7zm345.7 6.5c0-0.6 0-1.9-0.6-1.9-0.7-0.7-0.7-0.7-2-0.7-11.6-0.6-24.5-1.3-39.4-1.3-83.4 1.3-189.3 22-236.5 67.9-22 21.4-33 49.2-24.6 83.5 9.1 38.8 41.4 56.2 62.1 62 10.3 2.6 18.1 2 18.1 2 0 0 1.3 0 1.3-0.7 0-0.6-1.3-1.3-1.3-1.3 0 0-3.9-3.2-5.9-5.1-1.9-2.6-3.2-3.9-5.1-6.5-3.3-4.5-6.5-11-9.1-20.1-5.1-19.4 0.7-36.8 14.2-51.7 23.3-24.6 75.7-40.7 166.1-40.7l49.8 0.6c0 0 1.3 0 1.9-0.6 0.7-0.7 0.7-0.7 1.3-2 3.2-8.4 7.1-23.9 9.1-42.6 2.5-12.3 1.9-26.6 0.6-40.8z"/>
	<path id="Layer" class="s0" d="m1389.4 162c62.7-7.1 109.8-7.7 142.8-3.9h1.9v-1.9c-3.2-17.5-11-38.8-20-55-1.9-3.8-5.2-9-7.8-12.9-0.6-1.3-0.6-0.6-1.3-1.3-0.6-0.6-2.5-0.6-2.5-0.6-5.2-0.7-17.5-1.3-32.4-1.3-25.8-0.7-57.5 2.6-93 9.7-52.4 10.3-97.6 27.8-134.4 51.7-39.4 25.9-69.2 55-80.2 101.5-1.9 7.1 2.6 20.7 7.8 31.1 3.2 6.4 6.5 11.6 9.7 16.1l1.3 1.3c0.6 0 0.6-0.6 0.6-1.3 0.7-3.2 1.3-9.7 5.2-18.7 5.8-16.8 20-51.8 80.1-80.2 39.5-20.1 82.1-29.1 122.2-34.3z"/>
	<path id="Layer" class="s1" d="m1500.5 184.7h-17.4v20h-20.1v17.5h20.1v20h17.4v-20h20.1v-17.5h-20.1z"/>
	<path id="Layer" fill-rule="evenodd" class="s2" d="m337.3 263.5c0 2.6-0.6 3.3-2.6 4.6-6.4 3.2-16.8 22-23.9 35.5-7.1 13.6-18.7 38.8-27.8 58.9-1.9 4.5-6.4 14.2-7.1 16.2q-1.9 3.8-5.8 3.8l-7.1 0.7c-1.9 0.6-1.9 0-3.9-6.5-3.2-12.3-11-36.8-21.3-65.3-19.4 38.2-23.9 47.2-32.9 67.3-1.3 3.2-1.3 3.2-3.3 3.2l-10.3 1.3c-1.3 0-1.3-0.7-3.3-5.2-10.3-28.4-26.4-72.4-37.4-95.7-4.6-9.1-7.1-12.9-9.7-14.2-3.9-2-3.9-2-3.9-5.2 0-2.6 0.6-3.2 3.2-3.2h51.1c1.3 0 1.3 1.9 1.3 3.8 0 3.3-0.7 3.9-3.9 3.9-9.1 0.7-11.6 3.3-11.6 8.4 0 5.2 4.5 18.1 9 30.4 4.5 11.7 9.1 24 18.8 47.9 5.1-10.4 21.3-44 27.1-56.9-5.2-13.6-9.1-23.3-11.6-26.5-2.6-2.6-4.6-3.3-9.7-3.9-2-0.7-2-1.3-2-3.3 0-2.5 0.7-3.8 3.3-3.8h53.6c3.2 0 3.2 1.3 3.2 3.8 0 3.9-0.6 3.9-3.9 4.6-8.4 0.6-13.5 0.6-13.5 7.7 0 5.2 19.4 62.8 24.5 78.3 8.4-18.8 18.8-40.8 24.6-54.3 3.2-7.8 7.7-18.8 7.7-24 0-7.7-7.1-9-13.5-9-3.9 0-3.9 0-3.9-3.3 0-2.5 0-3.8 2.6-3.8h41.3c2 0 2.6 1.3 2.6 3.8zm-204.8 69.2c0 17.5-9.1 31.1-18.8 38.2-9 6.5-22.6 12.9-50.4 12.9-23.2 0-42.6-4.5-47.1-4.5-3.9 0-3.9 2.6-7.2 2.6-3.2 0-3.2-0.7-3.8-5.2-2-12.3-4.6-36.2-4.6-44 0-2.5 2-5.8 7.2-5.8 1.9 0 1.9 2 2.5 4.5 2.6 11.7 7.8 21.4 16.2 28.5 10.3 7.1 23.9 11.6 39.4 11.6 21.3 0 37.5-13.5 37.5-33.6 0-20-12.9-26.5-42.7-40.1-22.6-10.3-31-14.2-39.4-22.6-9.7-9.7-12.3-21.4-12.3-30.4 0-29.1 22-50.4 63.4-50.4 7.1 0 17.4 0.6 25.2 1.2 7.7 1.3 14.2 2 14.8 2 0.7 0 2-0.7 2.6-1.3h2.6c2 0 2 0.6 2 2.6 0 1.9-0.7 16.8 0 23.9 0.6 5.8 1.2 14.2 1.2 15.5 0 3.3-3.8 3.9-6.4 3.9-1.3 0-2-0.6-3.3-5.2-2.5-8.4-5.8-17.4-15.5-23.9-7.1-5.2-17.4-7.8-27.7-7.8-19.4 0-34.3 12.3-34.3 31.7 0 21.4 13.6 27.2 47.2 42.1 23.2 10.3 50.4 22 51.7 53.6zm280.4 44.7c0 3.2-0.6 3.8-3.2 3.8-3.9 0-16.8-0.6-31-0.6-11.6 0-27.8 0.6-33 0.6-1.9 0-2.6-0.6-2.6-3.2 0-3.2 0.7-3.9 4.6-4.5 9.7-2 12.9-3.9 14.8-10.4 2.6-7.7 2.6-31 2.6-47.8 0-29.8 0-33.6-13.6-35.6-5.1-0.6-5.1-0.6-5.1-3.9 0-3.2 1.3-3.8 3.9-5.1 5.8-2 23.2-11 30.3-13.6 2.6-1.3 5.2-2 7.1-2 2 0 2.6 0.7 2.6 2.6-0.6 3.9-1.3 13-1.3 17.5 0 7.1-0.6 20-0.6 42 0 9.1 0 40.8 1.3 47.2 1.3 8.4 7.1 9.1 18.1 9.7 4.5 0 5.1 0.7 5.1 3.3zm-33.9-160.4c-8.4 0-15.2-6.8-15.2-15.2 0-8.4 6.8-15.2 15.2-15.2 8.4 0 15.2 6.8 15.2 15.2 0 8.4-6.8 15.2-15.2 15.2zm138 131.9c0 29.8-34.3 34.9-51.1 34.9-12.3 0-21.9-1.9-27.1-2.6-2.6 0-4.5-0.6-5.8-0.6-0.7 0-2.6 0.6-3.9 0.6-1.9 0-2.6-1.3-2.6-3.8v-14.3c0-4.5-1.3-14.8-1.3-17.4 0-2 2-2.6 5.2-2.6 1.9 0 1.9 0.6 3.2 5.2 5.8 21.9 25.2 26.5 35.6 26.5 18 0 22.6-12.3 22.6-19.4 0-12.3-10.4-18.1-29.1-27.2-16.2-7.1-33.6-15.5-33.6-36.2 0-12.9 9.7-34.3 47.2-34.3 10.3 0 22.6 2.6 24.5 2.6 0.7 0 2.6-0.6 3.9-0.6 1.9 0 1.9 0.6 2.6 5.1 0.6 6.5 1.9 19.4 1.9 24 0 2.6-0.6 3.2-5.8 3.2-1.3 0-1.9-0.6-3.2-3.9-3.3-7.1-11-20.7-29.8-20.7-17.4 0-20 12.3-20 17.5 0 11 7.8 16.2 29.7 26.5 15.5 7.1 34.9 16.2 36.9 37.5zm106 0.7c0 29.7-34.3 34.9-51.1 34.9-12.3 0-22-2-27.1-2.6-2.6 0-4.6-0.7-5.9-0.7-0.6 0-2.5 0.7-3.8 0.7-2 0-2.6-1.3-2.6-3.9v-14.2c0-4.5-1.3-14.9-1.3-17.5 0-1.9 1.9-2.6 5.2-2.6 1.9 0 1.9 0.7 4.5 4.6 5.8 21.9 25.2 26.5 35.5 26.5 18.1 0 22.6-12.3 22.6-19.4 0-12.3-10.3-18.1-29-27.2-16.2-7.1-33.6-15.5-33.6-36.2 0-12.9 9.7-34.3 47.1-34.3 10.4 0 22.7 2.6 24.6 2.6 0.6 0 2.6-0.6 3.9-0.6 1.9 0 1.9 0.6 2.6 5.1 0.6 6.5 1.9 19.4 1.9 24 0 2.6-0.7 3.2-5.8 3.2-1.3 0-2-0.6-3.3-3.9-3.2-7.1-10.9-20.7-29.7-20.7-17.4 0-20 12.3-20 17.5 0 11 7.7 16.2 29.7 26.5 15.5 7.1 34.9 16.2 35.6 38.2zm164.7-14.9c0 4.5-1.9 17.4-7.7 39.4-2 5.8-2.6 8.4-5.2 8.4-5.8 0-11-1.3-64.6-1.3-49.8 0-61.4 1.3-64.6 1.3-2.6 0-3.3-1.3-3.3-3.8 0-3.9 0.7-3.9 5.2-4.6 16.8-1.9 18.1-11 19.4-21.3 1.9-18.1 1.9-53.7 1.9-77.6v-42c0-19.4-1.3-24.6-16.1-27.2-6.5-1.3-7.1-1.3-7.1-3.9 0-4.5 0.6-4.5 3.2-4.5 9.1 0 25.9 1.3 34.3 1.3 10.3 0 29-1.3 36.1-1.3 2 0 3.3 0.6 3.3 3.2 0 4.5 0 4.5-5.2 5.2-12.3 1.3-17.4 3.9-19.4 13.6-2.6 11-2.6 56.9-2.6 75.6 0 26.5 0.7 57.6 2.6 66 1.3 7.1 5.8 7.1 18.1 7.1 18.1 0 37.5 0 47.8-5.8 7.8-4.5 13-14.2 16.2-24.6 0.6-3.9 1.3-6.5 3.2-6.5 5.8 0 6.5 1.3 4.5 3.3zm82.8 42.7c0 3.2-0.7 3.8-3.3 3.8-3.9 0-16.8-0.6-31-0.6-11.6 0-27.8 0.6-33 0.6-1.9 0-2.5-0.6-2.5-3.2 0-3.2 0.6-3.9 4.5-4.5 9.7-2 12.9-3.9 14.9-10.4 2.5-7.7 2.5-31 2.5-47.8 0-29.8 0-33.6-13.5-35.6-5.2-0.6-5.2-0.6-5.2-3.9 0-3.2 1.3-3.8 3.9-5.1 5.8-2 23.2-11 30.3-13.6 2.6-1.3 5.2-2 7.2-2 1.9 0 2.5 0.7 2.5 2.6-0.6 3.9-1.3 13-1.3 17.5 0 7.1-0.6 20-0.6 42 0 9.1 0 40.8 1.3 47.2 1.3 8.4 7.1 9.1 18.1 9.7 3.9 0 4.5 0.7 5.2 3.3zm-34-160.4c-8.4 0-15.2-6.8-15.2-15.2 0-8.4 6.8-15.2 15.2-15.2 8.4 0 15.2 6.8 15.2 15.2 0 8.4-6.8 15.2-15.2 15.2zm132.8 50.4c0 5.8 0 7.1-3.8 7.1h-39.5c0 26.6 0.7 62.8 0.7 80.2 0.6 16.2 5.8 18.8 25.2 18.8 3.9 0 3.9 0.6 3.9 3.9 0 3.8-0.7 4.5-5.9 4.5-3.8 0-25.2-0.7-38.7-0.7-9.7 0-22 0.7-26.5 0.7-2 0-2-2-2-3.9 0-3.9 0.7-3.9 3.9-4.5 12.3-2 14.2-4.5 14.9-20.7 0.6-18.8 0.6-57.6 0.6-78.3h-14.8c-2 0-2 0-2-2.5 0-3.3 0-3.9 1.3-4.6l15.5-7.1c0-25.2 0.7-36.2 13.6-53 12.3-15.5 32.9-29.1 56.2-29.1 22 0 34.3 11 34.3 18.7 0 6.5-13 12.3-15.5 12.3-2 0-3.9-2.6-7.2-5.1-4.5-3.3-10.9-7.8-25.8-7.8-31 0-32.3 18.7-32.3 64h40.1c2.5 0 2.5 0.7 3.8 7.1zm107.9 93.8c0 1.9-0.6 3.2-3.2 5.2-11 9.7-29.7 18.7-49.7 18.7-42 0-50.4-35.5-50.4-57.5 0-45.3 31-69.9 58.1-69.9 13.6 0 35.6 7.1 42.7 32.4 1.9 7.1 3.2 16.1 1.9 16.1-26.5 3.9-51.7 9.1-77.5 14.3 0.6 20 8.4 47.8 38.7 47.8 9.1 0 23.3-2.6 36.9-12.9 1.3-0.7 1.9-1.3 1.9 0 0.6 1.9 0.6 3.2 0.6 5.8zm-78.1-50.4c11.6-2 19.3-3.9 40-9.1 9.1-2.6 10.4-5.2 10.4-7.8 0-10.3-11.7-26.5-25.9-26.5-16.8 0-24.5 22-24.5 43.4z"/>
</svg>